<svg xmlns="http://www.w3.org/2000/svg" xmlns:xlink="http://www.w3.org/1999/xlink" xmlns:lucid="lucid" width="1141.82" height="850"><g transform="translate(-120 -4)" lucid:page-tab-id="0_0"><path d="M0 0h1760v1040H0z" fill="#f2f2f2"/><path d="M510.9 360h260v193h-260z" stroke="#2ba9e0" stroke-width="2" fill="#fff"/><path d="M510.9 393.84h260m-260 88.63h260" stroke="#2ba9e0" stroke-width="2" fill="none"/><use xlink:href="#a" transform="matrix(1,0,0,1,518.9090909090909,368) translate(11.5478515625 13.9658203125)"/><use xlink:href="#b" transform="matrix(1,0,0,1,518.9090909090909,368) translate(88.583984375 13.9658203125)"/><use xlink:href="#c" transform="matrix(1,0,0,1,518.9090909090909,368) translate(141.51171875 13.9658203125)"/><use xlink:href="#d" transform="matrix(1,0,0,1,518.9090909090909,368) translate(167.4130859375 13.9658203125)"/><use xlink:href="#e" transform="matrix(1,0,0,1,518.9090909090909,368) translate(208.431640625 13.9658203125)"/><use xlink:href="#f" transform="matrix(1,0,0,1,522.9090909090909,401.841796875) translate(0 32.544921875)"/><use xlink:href="#g" transform="matrix(1,0,0,1,522.9090909090909,401.841796875) translate(17.0068359375 32.544921875)"/><use xlink:href="#h" transform="matrix(1,0,0,1,522.9090909090909,401.841796875) translate(69.275390625 32.544921875)"/><use xlink:href="#i" transform="matrix(1,0,0,1,522.9090909090909,401.841796875) translate(122.0185546875 32.544921875)"/><use xlink:href="#j" transform="matrix(1,0,0,1,522.9090909090909,401.841796875) translate(0 50.38671875)"/><use xlink:href="#k" transform="matrix(1,0,0,1,522.9090909090909,401.841796875) translate(17.0068359375 50.38671875)"/><path d="M540 24h201.82v261H540z" stroke="#2ba9e0" stroke-width="2" fill="#ccc"/><path d="M540 57.84h201.82M540 233.84h201.82" stroke="#2ba9e0" stroke-width="2" fill="none"/><use xlink:href="#a" transform="matrix(1,0,0,1,548,32) translate(30.65478515625 13.9658203125)"/><use xlink:href="#l" transform="matrix(1,0,0,1,548,32) translate(107.69091796875 13.9658203125)"/><use xlink:href="#m" transform="matrix(1,0,0,1,552,65.841796875) translate(0 23.01953125)"/><use xlink:href="#n" transform="matrix(1,0,0,1,552,65.841796875) translate(17.0068359375 23.01953125)"/><use xlink:href="#m" transform="matrix(1,0,0,1,552,65.841796875) translate(0 40.861328125)"/><use xlink:href="#o" transform="matrix(1,0,0,1,552,65.841796875) translate(17.0068359375 40.861328125)"/><use xlink:href="#m" transform="matrix(1,0,0,1,552,65.841796875) translate(0 58.703125)"/><use xlink:href="#p" transform="matrix(1,0,0,1,552,65.841796875) translate(17.0068359375 58.703125)"/><use xlink:href="#m" transform="matrix(1,0,0,1,552,65.841796875) translate(0 76.544921875)"/><use xlink:href="#q" transform="matrix(1,0,0,1,552,65.841796875) translate(17.0068359375 76.544921875)"/><use xlink:href="#m" transform="matrix(1,0,0,1,552,65.841796875) translate(0 94.38671875)"/><use xlink:href="#r" transform="matrix(1,0,0,1,552,65.841796875) translate(17.0068359375 94.38671875)"/><use xlink:href="#m" transform="matrix(1,0,0,1,552,65.841796875) translate(0 112.228515625)"/><use xlink:href="#s" transform="matrix(1,0,0,1,552,65.841796875) translate(17.0068359375 112.228515625)"/><use xlink:href="#t" transform="matrix(1,0,0,1,552,65.841796875) translate(63.5537109375 112.228515625)"/><use xlink:href="#m" transform="matrix(1,0,0,1,552,65.841796875) translate(0 130.0703125)"/><use xlink:href="#u" transform="matrix(1,0,0,1,552,65.841796875) translate(17.0068359375 130.0703125)"/><use xlink:href="#v" transform="matrix(1,0,0,1,552,65.841796875) translate(80.1650390625 130.0703125)"/><use xlink:href="#w" transform="matrix(1,0,0,1,552,65.841796875) translate(0 147.912109375)"/><path d="M640.9 358V310.48" stroke="#000" stroke-width="2" fill="none"/><path d="M641.9 359h-2v-1.03h2"/><path d="M640.9 287.97l12.74 21.5h-25.46z" stroke="#000" stroke-width="2" fill="#fff"/><path d="M1040 263.8h201.82v136H1040z" stroke="#2ba9e0" stroke-width="2" fill="#ccc"/><path d="M1040 297.65h201.82M1040 348.75h201.82" stroke="#2ba9e0" stroke-width="2" fill="none"/><use xlink:href="#x" transform="matrix(1,0,0,1,1048,271.8063215814537) translate(38.701171875 13.9658203125)"/><use xlink:href="#y" transform="matrix(1,0,0,1,1048,271.8063215814537) translate(108.46875 13.9658203125)"/><use xlink:href="#m" transform="matrix(1,0,0,1,1052,305.6481184564537) translate(0 22.9658203125)"/><use xlink:href="#z" transform="matrix(1,0,0,1,1052,305.6481184564537) translate(17.0068359375 22.9658203125)"/><path d="M772.9 379.5H1038" stroke="#000" stroke-width="2" fill="none"/><path d="M772.93 380.5h-1.02v-2h1.03M1039 380.5h-1.03v-2h1.03"/><use xlink:href="#A" transform="matrix(1,0,0,1,782.9642113779549,383.51002528515744) translate(0 14.4)"/><use xlink:href="#B" transform="matrix(1,0,0,1,1000.4839523529964,353.9100252851574) translate(0 14.4)"/><use xlink:href="#C" transform="matrix(1,0,0,1,853.5045454545455,353.9100252851574) translate(0 14.4)"/><use xlink:href="#D" transform="matrix(1,0,0,1,853.5045454545455,353.9100252851574) translate(67.95 14.4)"/><path d="M540 680h201.82v136H540z" stroke="#2ba9e0" stroke-width="2" fill="#ccc"/><path d="M540 713.84h201.82M540 764.96h201.82" stroke="#2ba9e0" stroke-width="2" fill="none"/><use xlink:href="#E" transform="matrix(1,0,0,1,548,688) translate(68.3818359375 13.9658203125)"/><use xlink:href="#m" transform="matrix(1,0,0,1,552,721.841796875) translate(0 22.9658203125)"/><use xlink:href="#z" transform="matrix(1,0,0,1,552,721.841796875) translate(17.0068359375 22.9658203125)"/><path d="M640.9 555v123" stroke="#000" stroke-width="2" fill="none"/><path d="M641.9 555.03h-2V554h2M641.9 679h-2v-1.03h2"/><use xlink:href="#A" transform="matrix(1,0,0,1,605.9090909090909,562.8573618507974) translate(0 14.4)"/><use xlink:href="#B" transform="matrix(1,0,0,1,648.9090909090909,654.2636644413506) translate(0 14.4)"/><use xlink:href="#F" transform="matrix(1,0,0,1,648.9090909090909,597.9685252483715) translate(0 14.4)"/><path d="M140 360.1h201.82v140H140z" stroke="#2ba9e0" stroke-width="2" fill="#fff"/><path d="M140 397.7h201.82M140 448.8h201.82" stroke="#2ba9e0" stroke-width="2" fill="none"/><use xlink:href="#G" transform="matrix(1,0,0,1,148,368.0913554636751) translate(53.05 14.6)"/><path d="M343.82 415h165.1" stroke="#000" stroke-width="2" fill="none"/><path d="M343.84 416h-1.02v-2h1.02M509.9 416h-1.02v-2h1.03"/><use xlink:href="#A" transform="matrix(1,0,0,1,344.67975836918373,418.98750633446724) translate(0 14.4)"/><use xlink:href="#A" transform="matrix(1,0,0,1,478.2189639543782,389.3875063344672) translate(0 14.4)"/><use xlink:href="#H" transform="matrix(1,0,0,1,389.3886364545454,418.98750633446724) translate(0 14.4)"/><path d="M140 24h201.82v154H140z" stroke="#2ba9e0" stroke-width="2" fill="#ccc"/><path d="M140 57.84h201.82M140 126.8h201.82" stroke="#2ba9e0" stroke-width="2" fill="none"/><use xlink:href="#I" transform="matrix(1,0,0,1,148,32) translate(76.87646484375 13.9658203125)"/><use xlink:href="#m" transform="matrix(1,0,0,1,152,65.841796875) translate(0 22.544921875)"/><use xlink:href="#o" transform="matrix(1,0,0,1,152,65.841796875) translate(17.0068359375 22.544921875)"/><use xlink:href="#m" transform="matrix(1,0,0,1,152,65.841796875) translate(0 40.38671875)"/><use xlink:href="#J" transform="matrix(1,0,0,1,152,65.841796875) translate(17.0068359375 40.38671875)"/><path d="M240.9 358.1V203.47" stroke="#000" stroke-width="2" fill="none"/><path d="M241.9 359.1h-2v-1.03h2"/><path d="M240.9 180.97l12.74 21.5h-25.46z" stroke="#000" stroke-width="2" fill="#fff"/><path d="M260 680h201.82v154H260z" stroke="#2ba9e0" stroke-width="2" fill="#ccc"/><path d="M260 731.68h201.82M260 782.8h201.82" stroke="#2ba9e0" stroke-width="2" fill="none"/><g><use xlink:href="#K" transform="matrix(1,0,0,1,268,688) translate(47.09912109375 14.044921875)"/><use xlink:href="#L" transform="matrix(1,0,0,1,268,688) translate(43.45166015625 31.88671875)"/></g><g><use xlink:href="#m" transform="matrix(1,0,0,1,272,739.68359375) translate(0 22.9658203125)"/><use xlink:href="#z" transform="matrix(1,0,0,1,272,739.68359375) translate(17.0068359375 22.9658203125)"/></g><path d="M508.9 523.2h-148V678" stroke="#000" stroke-width="2" fill="none"/><path d="M509.9 524.2h-1.02v-2h1.03M361.9 679h-2v-1.03h2"/><g><use xlink:href="#A" transform="matrix(1,0,0,1,465.8103459357617,497.59382395380925) translate(0 14.4)"/></g><g><use xlink:href="#B" transform="matrix(1,0,0,1,368.9090909090909,644.691412682978) translate(0 14.4)"/></g><g><use xlink:href="#M" transform="matrix(1,0,0,1,368.9090909090909,572.3969119769047) translate(0 14.4)"/><use xlink:href="#N" transform="matrix(1,0,0,1,368.9090909090909,572.3969119769047) translate(87.85 14.4)"/></g><path d="M1040 453.95h201.82v136H1040z" stroke="#2ba9e0" stroke-width="2" fill="#ccc"/><path d="M1040 487.8h201.82M1040 538.9h201.82" stroke="#2ba9e0" stroke-width="2" fill="none"/><g><use xlink:href="#O" transform="matrix(1,0,0,1,1048,461.95300897997015) translate(47.2705078125 13.9658203125)"/><use xlink:href="#e" transform="matrix(1,0,0,1,1048,461.95300897997015) translate(114.708984375 13.9658203125)"/></g><g><use xlink:href="#m" transform="matrix(1,0,0,1,1052,495.79480585497015) translate(0 22.9658203125)"/><use xlink:href="#z" transform="matrix(1,0,0,1,1052,495.79480585497015) translate(17.0068359375 22.9658203125)"/></g><path d="M772.9 524.62H1038" stroke="#000" stroke-width="2" fill="none"/><path d="M772.93 525.62h-1.02v-2h1.03M1039 525.62h-1.03v-2h1.03"/><g><use xlink:href="#A" transform="matrix(1,0,0,1,800.4115120855582,528.6196756466368) translate(0 14.4)"/></g><g><use xlink:href="#B" transform="matrix(1,0,0,1,994.2218517299548,499.01967564663676) translate(0 14.4)"/></g><g><use xlink:href="#P" transform="matrix(1,0,0,1,862.4594924943384,499.01967564663676) translate(0 14.4)"/></g><path d="M838.18 680H1040v154H838.18z" stroke="#2ba9e0" stroke-width="2" fill="#ccc"/><path d="M838.18 731.68H1040M838.18 782.8H1040" stroke="#2ba9e0" stroke-width="2" fill="none"/><g><use xlink:href="#Q" transform="matrix(1,0,0,1,846.1818181818182,688) translate(30.67236328125 14.044921875)"/><use xlink:href="#R" transform="matrix(1,0,0,1,846.1818181818182,688) translate(98.06689453125 14.044921875)"/><use xlink:href="#S" transform="matrix(1,0,0,1,846.1818181818182,688) translate(54.6884765625 31.88671875)"/></g><g><use xlink:href="#m" transform="matrix(1,0,0,1,850.1818181818182,739.68359375) translate(0 22.9658203125)"/><use xlink:href="#z" transform="matrix(1,0,0,1,850.1818181818182,739.68359375) translate(17.0068359375 22.9658203125)"/></g><path d="M748.55 555v61.5H939.1V678" stroke="#000" stroke-width="2" fill="none"/><path d="M749.55 555.03h-2V554h2M940.1 679h-2v-1.03h2"/><g><use xlink:href="#A" transform="matrix(1,0,0,1,713.5531081429913,591.519404945355) translate(0 14.4)"/></g><g><use xlink:href="#A" transform="matrix(1,0,0,1,947.090909090909,633.9433461100265) translate(0 14.4)"/></g><g><use xlink:href="#T" transform="matrix(1,0,0,1,813.8134861779535,590.9000000000001) translate(0 14.4)"/><use xlink:href="#U" transform="matrix(1,0,0,1,813.8134861779535,590.9000000000001) translate(63 14.4)"/><use xlink:href="#V" transform="matrix(1,0,0,1,813.8134861779535,590.9000000000001) translate(123 14.4)"/></g><defs><path fill="#3d4752" d="M205-1489h426c365 0 548 153 548 458S998-573 635-573H478V0H205v-1489zm273 219v478h161c177 0 265-80 265-239s-88-239-265-239H478" id="W"/><path fill="#3d4752" d="M431-770V0H168v-1094h263v110c156-133 232-175 396-74l-84 220c-129-52-218-25-312 68" id="X"/><path fill="#3d4752" d="M711-687c-7-170-35-229-188-230-74 0-147 18-220 53l-88-179c111-51 229-76 353-76 303 0 405 148 405 459V0H717v-81C651-13 566 21 461 21 236 21 81-120 81-346c0-158 85-260 254-311 103-31 245-40 376-30zM326-329c0 101 84 155 189 155 91 0 157-36 196-109v-226c-23-4-49-6-78-6-205 0-307 62-307 186" id="Y"/><path fill="#3d4752" d="M94-547c0-294 207-569 494-569 131 0 260 50 386 150L872-811c-96-74-188-111-277-112-163-2-225 186-225 376 0 251 82 377 246 377 81 0 168-36 260-107l103 137C862-32 733 22 593 22 292 22 94-208 94-547" id="Z"/><path fill="#3d4752" d="M578-1116c196 0 337 93 423 279 40 87 60 183 60 290 0 225-77 390-230 494-74 50-158 75-253 75-197 0-338-93-424-279-40-87-60-183-60-290 0-226 77-391 231-495 73-49 158-74 253-74zm0 194c-139 0-208 125-208 375s69 375 208 375c138 0 207-125 207-375s-69-375-207-375" id="aa"/><path fill="#3d4752" d="M452 0L25-1094h272l252 709 263-709h249L634 0H452" id="ab"/><path fill="#3d4752" d="M783-1116c173 0 283 89 283 264V0H803v-754c0-92-46-138-139-138-73 0-151 30-233 91V0H168v-1094h263v93c117-77 234-115 352-115" id="ac"/><path fill="#3d4752" d="M431-1094V0H168v-1094h263zm-31-185H207l144-315h292" id="ad"/><g id="a"><use transform="matrix(0.0087890625,0,0,0.0087890625,0,0)" xlink:href="#W"/><use transform="matrix(0.0087890625,0,0,0.0087890625,11.1357421875,0)" xlink:href="#X"/><use transform="matrix(0.0087890625,0,0,0.0087890625,17.5693359375,0)" xlink:href="#Y"/><use transform="matrix(0.0087890625,0,0,0.0087890625,27.474609375,0)" xlink:href="#Z"/><use transform="matrix(0.0087890625,0,0,0.0087890625,36.0791015625,0)" xlink:href="#aa"/><use transform="matrix(0.0087890625,0,0,0.0087890625,46.23046875,0)" xlink:href="#ab"/><use transform="matrix(0.0087890625,0,0,0.0087890625,55.775390625,0)" xlink:href="#ac"/><use transform="matrix(0.0087890625,0,0,0.0087890625,66.498046875,0)" xlink:href="#ad"/></g><path fill="#3d4752" d="M1420-1116c172-1 282 89 282 264V0h-263v-754c0-92-46-138-138-138-75 0-153 30-235 90V0H803v-754c0-92-46-138-138-138-71 0-149 30-234 90V0H168v-1094h263v93c117-77 234-115 353-115 121 0 206 45 254 134 124-89 251-134 382-134" id="ae"/><path fill="#3d4752" d="M925-326c0 213-197 348-437 348C341 22 194-16 47-93l93-183c121 69 236 103 345 103s164-42 164-127c0-41-24-75-72-100-19-10-61-25-126-44-165-49-270-109-315-179-27-41-40-94-40-158 0-210 193-335 432-335 111 0 229 34 354 103l-83 176c-101-56-191-84-271-84-107 0-161 40-161 121 0 37 23 66 70 89 16 12 285 99 327 123 105 60 161 144 161 262" id="af"/><path fill="#3d4752" d="M503-384c-2 129 8 204 107 204 41 0 91-13 150-38l66 171C737-1 639 22 533 22c-230-2-293-122-293-358v-559H42v-199h198v-395h263v395h265v199H503v511" id="ag"/><g id="b"><use transform="matrix(0.0087890625,0,0,0.0087890625,0,0)" xlink:href="#ae"/><use transform="matrix(0.0087890625,0,0,0.0087890625,16.3125,0)" xlink:href="#ad"/><use transform="matrix(0.0087890625,0,0,0.0087890625,21.5771484375,0)" xlink:href="#af"/><use transform="matrix(0.0087890625,0,0,0.0087890625,30.4013671875,0)" xlink:href="#ag"/><use transform="matrix(0.0087890625,0,0,0.0087890625,37.5029296875,0)" xlink:href="#aa"/></g><g id="c"><use transform="matrix(0.0087890625,0,0,0.0087890625,0,0)" xlink:href="#ac"/><use transform="matrix(0.0087890625,0,0,0.0087890625,10.72265625,0)" xlink:href="#Y"/></g><path fill="#3d4752" d="M582-1489l334 833 329-833h295L1695 0h-278l-102-1047-287 738H798l-298-738L397 0H130l154-1489h298" id="ah"/><path fill="#3d4752" d="M478 0H205v-1489h859v219H478v389h485v219H478V0" id="ai"/><g id="d"><use transform="matrix(0.0087890625,0,0,0.0087890625,0,0)" xlink:href="#ah"/><use transform="matrix(0.0087890625,0,0,0.0087890625,16.0400390625,0)" xlink:href="#ai"/><use transform="matrix(0.0087890625,0,0,0.0087890625,25.892578125,0)" xlink:href="#ai"/></g><path fill="#3d4752" d="M718 23c-304 0-533-125-532-410v-1102h272v1066c0 151 87 227 260 227 174 0 261-76 261-227v-1066h272v1102c8 267-231 410-533 410" id="aj"/><path fill="#3d4752" d="M970 0L478-694V0H205v-1489h273v622l490-622h310L717-790 1296 0H970" id="ak"/><g id="e"><use transform="matrix(0.0087890625,0,0,0.0087890625,0,0)" xlink:href="#aj"/><use transform="matrix(0.0087890625,0,0,0.0087890625,12.6298828125,0)" xlink:href="#ak"/></g><path fill="#3d4752" d="M1230-642H783v452H552v-452H106v-221h446v-452h231v452h447v221" id="al"/><use transform="matrix(0.0087890625,0,0,0.0087890625,0,0)" xlink:href="#al" id="f"/><path fill="#3d4752" d="M690-1116c279 0 423 232 423 527 0 261-67 439-196 539C782 54 551 41 431-69v481H168v-1506h253v93c71-77 160-115 269-115zM431-810v545c64 56 127 84 189 84 145 0 218-134 218-402 0-214-68-321-203-321-71 0-139 31-204 94" id="am"/><path fill="#3d4752" d="M546-961c-228 0-273 188-273 415 0 228 51 427 273 427 137 0 233-80 245-216l182 11C939-114 797 23 552 23 216 23 120-210 86-540c-57-529 575-745 836-364 23 40 28 80 40 125l-182 17c-23-119-91-199-233-199zm108-239H449c-74-102-176-171-233-290 182-11 222 114 336 171 108-57 148-182 324-171-51 119-154 188-222 290" id="an"/><path fill="#3d4752" d="M94-548c0-302 191-568 483-568 311 0 493 270 482 633H370c7 207 93 311 256 311 93 0 196-46 308-137l103 144C907-40 760 22 595 22 293 22 94-237 94-548zm282-120h403c-18-170-85-255-202-255s-184 85-201 255" id="ao"/><g id="g"><use transform="matrix(0.0087890625,0,0,0.0087890625,0,0)" xlink:href="#am"/><use transform="matrix(0.0087890625,0,0,0.0087890625,10.6083984375,0)" xlink:href="#aa"/><use transform="matrix(0.0087890625,0,0,0.0087890625,20.759765625,0)" xlink:href="#an"/><use transform="matrix(0.0087890625,0,0,0.0087890625,29.759765625,0)" xlink:href="#ao"/><use transform="matrix(0.0087890625,0,0,0.0087890625,39.8935546875,0)" xlink:href="#ag"/></g><path fill="#3d4752" d="M784-1116c178 0 282 88 282 264V0H803v-754c0-92-46-138-138-138-74 0-152 32-234 95V0H168v-1580h263v579c117-77 234-115 353-115" id="ap"/><path fill="#3d4752" d="M94-505c0-321 128-611 419-611 101 0 188 30 263 91v-555h263V-1H787v-91C712-16 620 22 509 22c-171 0-293-85-364-254-34-81-51-172-51-273zm682 228v-551c-64-56-127-84-189-84-145 0-218 134-218 401 0 213 68 320 203 320 69 0 137-29 204-86" id="aq"/><path fill="#3d4752" d="M431-1094V0H168v-1094h263zm0-190H168v-296h263v296" id="ar"/><g id="h"><use transform="matrix(0.0087890625,0,0,0.0087890625,0,0)" xlink:href="#ap"/><use transform="matrix(0.0087890625,0,0,0.0087890625,10.72265625,0)" xlink:href="#aa"/><use transform="matrix(0.0087890625,0,0,0.0087890625,20.8740234375,0)" xlink:href="#aq"/><use transform="matrix(0.0087890625,0,0,0.0087890625,31.482421875,0)" xlink:href="#ar"/><use transform="matrix(0.0087890625,0,0,0.0087890625,36.7470703125,0)" xlink:href="#ac"/></g><path fill="#3d4752" d="M421-36L25-1094h272l251 717 263-717h249L649 1c-97 251-201 366-459 445L96 279c173-62 281-167 325-315zm228-1243H456l144-315h292" id="as"/><path fill="#3d4752" d="M569-1104c358 0 489 239 478 603H279c0 228 80 381 302 387 148 6 245-68 279-165l159 46C956-74 809 23 581 23 251 23 80-187 86-546c6-347 148-558 484-558zm296 461c34-341-432-438-552-159-17 40-34 97-34 159h586zm-194-557H466c-74-102-176-171-233-290 182-11 222 114 336 171 108-57 148-182 324-171-51 119-154 188-222 290" id="at"/><g id="i"><use transform="matrix(0.0087890625,0,0,0.0087890625,0,0)" xlink:href="#ag"/><use transform="matrix(0.0087890625,0,0,0.0087890625,7.1015625,0)" xlink:href="#as"/><use transform="matrix(0.0087890625,0,0,0.0087890625,16.6376953125,0)" xlink:href="#aq"/><use transform="matrix(0.0087890625,0,0,0.0087890625,27.24609375,0)" xlink:href="#ac"/><use transform="matrix(0.0087890625,0,0,0.0087890625,37.96875,0)" xlink:href="#at"/></g><use transform="matrix(0.0087890625,0,0,0.0087890625,0,0)" xlink:href="#al" id="j"/><path fill="#3d4752" d="M913-199V0H57v-145l540-750H116v-199h789v167L377-199h536" id="au"/><path fill="#3d4752" d="M649-927C205-1018 347-409 325 0H143l-6-1081h171c6 68-6 165 11 222 34-154 131-279 330-233v165zm-154-273H290c-74-102-176-171-233-290 182-11 222 114 336 171 108-57 148-182 324-171-51 119-154 188-222 290" id="av"/><path fill="#3d4752" d="M168-1094h263V8c0 183-50 314-155 383-129 85-293 60-435-19l64-181c165 82 263 14 263-222v-1063zm263-190H168v-296h263v296" id="aw"/><g id="k"><use transform="matrix(0.0087890625,0,0,0.0087890625,0,0)" xlink:href="#au"/><use transform="matrix(0.0087890625,0,0,0.0087890625,8.6044921875,0)" xlink:href="#ab"/><use transform="matrix(0.0087890625,0,0,0.0087890625,18.1494140625,0)" xlink:href="#ao"/><use transform="matrix(0.0087890625,0,0,0.0087890625,28.283203125,0)" xlink:href="#av"/><use transform="matrix(0.0087890625,0,0,0.0087890625,34.2333984375,0)" xlink:href="#ao"/><use transform="matrix(0.0087890625,0,0,0.0087890625,44.3671875,0)" xlink:href="#aw"/><use transform="matrix(0.0087890625,0,0,0.0087890625,49.6318359375,0)" xlink:href="#ac"/><use transform="matrix(0.0087890625,0,0,0.0087890625,60.3544921875,0)" xlink:href="#at"/><use transform="matrix(0.0087890625,0,0,0.0087890625,72.087890625,0)" xlink:href="#ac"/><use transform="matrix(0.0087890625,0,0,0.0087890625,82.810546875,0)" xlink:href="#aa"/></g><g id="l"><use transform="matrix(0.0087890625,0,0,0.0087890625,0,0)" xlink:href="#ae"/><use transform="matrix(0.0087890625,0,0,0.0087890625,16.3125,0)" xlink:href="#ad"/><use transform="matrix(0.0087890625,0,0,0.0087890625,21.5771484375,0)" xlink:href="#af"/><use transform="matrix(0.0087890625,0,0,0.0087890625,30.4013671875,0)" xlink:href="#ag"/><use transform="matrix(0.0087890625,0,0,0.0087890625,37.5029296875,0)" xlink:href="#aa"/></g><use transform="matrix(0.0087890625,0,0,0.0087890625,0,0)" xlink:href="#al" id="m"/><g id="n"><use transform="matrix(0.0087890625,0,0,0.0087890625,0,0)" xlink:href="#ar"/><use transform="matrix(0.0087890625,0,0,0.0087890625,5.2646484375,0)" xlink:href="#X"/><use transform="matrix(0.0087890625,0,0,0.0087890625,12.4541015625,0)" xlink:href="#ar"/></g><path fill="#3d4752" d="M711-687c-7-170-35-229-188-230-74 0-147 18-220 53l-88-179c111-51 229-76 353-76 303 0 405 148 405 459V0H717v-81C651-13 566 21 461 21 236 21 81-120 81-346c0-158 85-260 254-311 103-31 245-40 376-30zM326-329c0 101 84 155 189 155 91 0 157-36 196-109v-226c-23-4-49-6-78-6-205 0-307 62-307 186zm359-950H492l144-315h292" id="ax"/><g id="o"><use transform="matrix(0.0087890625,0,0,0.0087890625,0,0)" xlink:href="#ac"/><use transform="matrix(0.0087890625,0,0,0.0087890625,10.72265625,0)" xlink:href="#ax"/><use transform="matrix(0.0087890625,0,0,0.0087890625,20.6279296875,0)" xlink:href="#au"/><use transform="matrix(0.0087890625,0,0,0.0087890625,29.232421875,0)" xlink:href="#ao"/><use transform="matrix(0.0087890625,0,0,0.0087890625,39.3662109375,0)" xlink:href="#ab"/></g><g id="p"><use transform="matrix(0.0087890625,0,0,0.0087890625,0,0)" xlink:href="#am"/><use transform="matrix(0.0087890625,0,0,0.0087890625,10.6083984375,0)" xlink:href="#aa"/><use transform="matrix(0.0087890625,0,0,0.0087890625,20.759765625,0)" xlink:href="#am"/><use transform="matrix(0.0087890625,0,0,0.0087890625,31.3681640625,0)" xlink:href="#ar"/><use transform="matrix(0.0087890625,0,0,0.0087890625,36.6328125,0)" xlink:href="#af"/></g><path fill="#3d4752" d="M421-36L25-1094h272l251 717 263-717h249L649 1c-97 251-201 366-459 445L96 279c173-62 281-167 325-315" id="ay"/><g id="q"><use transform="matrix(0.0087890625,0,0,0.0087890625,0,0)" xlink:href="#ab"/><use transform="matrix(0.0087890625,0,0,0.0087890625,9.544921875,0)" xlink:href="#ay"/><use transform="matrix(0.0087890625,0,0,0.0087890625,19.0810546875,0)" xlink:href="#ag"/><use transform="matrix(0.0087890625,0,0,0.0087890625,26.1826171875,0)" xlink:href="#ab"/><use transform="matrix(0.0087890625,0,0,0.0087890625,35.7275390625,0)" xlink:href="#aa"/><use transform="matrix(0.0087890625,0,0,0.0087890625,45.87890625,0)" xlink:href="#av"/><use transform="matrix(0.0087890625,0,0,0.0087890625,51.8291015625,0)" xlink:href="#ao"/><use transform="matrix(0.0087890625,0,0,0.0087890625,61.962890625,0)" xlink:href="#ac"/><use transform="matrix(0.0087890625,0,0,0.0087890625,72.685546875,0)" xlink:href="#aa"/></g><path fill="#3d4752" d="M446 22C216 22 155-90 155-336v-1244h263v1196c0 75 6 126 18 153 27 62 110 61 177 31l67 172C603 5 525 22 446 22" id="az"/><g id="r"><use transform="matrix(0.0087890625,0,0,0.0087890625,0,0)" xlink:href="#am"/><use transform="matrix(0.0087890625,0,0,0.0087890625,10.6083984375,0)" xlink:href="#av"/><use transform="matrix(0.0087890625,0,0,0.0087890625,16.55859375,0)" xlink:href="#ad"/><use transform="matrix(0.0087890625,0,0,0.0087890625,21.8232421875,0)" xlink:href="#az"/><use transform="matrix(0.0087890625,0,0,0.0087890625,27.5185546875,0)" xlink:href="#aa"/><use transform="matrix(0.0087890625,0,0,0.0087890625,37.669921875,0)" xlink:href="#ap"/><use transform="matrix(0.0087890625,0,0,0.0087890625,48.392578125,0)" xlink:href="#Y"/></g><path fill="#3d4752" d="M1113-589c0 325-126 613-421 611-108 0-198-32-271-96V0H168v-1580h263v560c76-64 164-96 265-96 269 0 417 244 417 527zM431-818v553c64 56 127 84 189 84 145 0 218-134 218-402 0-214-68-321-203-321-67 0-135 29-204 86" id="aA"/><g id="s"><use transform="matrix(0.0087890625,0,0,0.0087890625,0,0)" xlink:href="#aq"/><use transform="matrix(0.0087890625,0,0,0.0087890625,10.6083984375,0)" xlink:href="#aa"/><use transform="matrix(0.0087890625,0,0,0.0087890625,20.759765625,0)" xlink:href="#aA"/><use transform="matrix(0.0087890625,0,0,0.0087890625,31.3681640625,0)" xlink:href="#Y"/></g><g id="t"><use transform="matrix(0.0087890625,0,0,0.0087890625,0,0)" xlink:href="#ag"/><use transform="matrix(0.0087890625,0,0,0.0087890625,7.1015625,0)" xlink:href="#X"/><use transform="matrix(0.0087890625,0,0,0.0087890625,14.6513671875,0)" xlink:href="#ab"/><use transform="matrix(0.0087890625,0,0,0.0087890625,23.8359375,0)" xlink:href="#ax"/><use transform="matrix(0.0087890625,0,0,0.0087890625,33.7412109375,0)" xlink:href="#ac"/><use transform="matrix(0.0087890625,0,0,0.0087890625,44.4638671875,0)" xlink:href="#ad"/></g><path fill="#3d4752" d="M437 22c-177 0-283-91-283-265v-851h263v755c0 91 46 137 139 137 75 0 152-32 233-95v-797h263V0H789v-93C670-16 552 22 437 22" id="aB"/><g id="u"><use transform="matrix(0.0087890625,0,0,0.0087890625,0,0)" xlink:href="#ac"/><use transform="matrix(0.0087890625,0,0,0.0087890625,10.72265625,0)" xlink:href="#ax"/><use transform="matrix(0.0087890625,0,0,0.0087890625,20.6279296875,0)" xlink:href="#af"/><use transform="matrix(0.0087890625,0,0,0.0087890625,29.4521484375,0)" xlink:href="#ag"/><use transform="matrix(0.0087890625,0,0,0.0087890625,36.5537109375,0)" xlink:href="#aB"/><use transform="matrix(0.0087890625,0,0,0.0087890625,47.2763671875,0)" xlink:href="#am"/></g><g id="v"><use transform="matrix(0.0087890625,0,0,0.0087890625,0,0)" xlink:href="#ar"/><use transform="matrix(0.0087890625,0,0,0.0087890625,5.2646484375,0)" xlink:href="#ap"/><use transform="matrix(0.0087890625,0,0,0.0087890625,15.9873046875,0)" xlink:href="#ac"/><use transform="matrix(0.0087890625,0,0,0.0087890625,26.7099609375,0)" xlink:href="#ao"/><use transform="matrix(0.0087890625,0,0,0.0087890625,36.84375,0)" xlink:href="#aq"/></g><path fill="#3d4752" d="M452 0H163v-278h289V0" id="aC"/><g id="w"><use transform="matrix(0.0087890625,0,0,0.0087890625,0,0)" xlink:href="#aC"/><use transform="matrix(0.0087890625,0,0,0.0087890625,5.4052734375,0)" xlink:href="#aC"/><use transform="matrix(0.0087890625,0,0,0.0087890625,10.810546875,0)" xlink:href="#aC"/></g><g id="x"><use transform="matrix(0.0087890625,0,0,0.0087890625,0,0)" xlink:href="#ah"/><use transform="matrix(0.0087890625,0,0,0.0087890625,16.0400390625,0)" xlink:href="#au"/><use transform="matrix(0.0087890625,0,0,0.0087890625,24.64453125,0)" xlink:href="#aq"/><use transform="matrix(0.0087890625,0,0,0.0087890625,35.2529296875,0)" xlink:href="#aa"/><use transform="matrix(0.0087890625,0,0,0.0087890625,45.404296875,0)" xlink:href="#ab"/><use transform="matrix(0.0087890625,0,0,0.0087890625,54.5888671875,0)" xlink:href="#ax"/></g><g id="y"><use transform="matrix(0.0087890625,0,0,0.0087890625,0,0)" xlink:href="#ag"/><use transform="matrix(0.0087890625,0,0,0.0087890625,7.1015625,0)" xlink:href="#av"/><use transform="matrix(0.0087890625,0,0,0.0087890625,13.0517578125,0)" xlink:href="#ad"/><use transform="matrix(0.0087890625,0,0,0.0087890625,18.31640625,0)" xlink:href="#aq"/><use transform="matrix(0.0087890625,0,0,0.0087890625,28.9248046875,0)" xlink:href="#Y"/></g><g id="z"><use transform="matrix(0.0087890625,0,0,0.0087890625,0,0)" xlink:href="#ar"/><use transform="matrix(0.0087890625,0,0,0.0087890625,5.2646484375,0)" xlink:href="#X"/><use transform="matrix(0.0087890625,0,0,0.0087890625,12.4541015625,0)" xlink:href="#ar"/></g><path d="M101-251c68 0 85 55 85 127S166 4 100 4C33 4 14-52 14-124c0-73 17-127 87-127zm-1 229c47 0 54-49 54-102s-4-102-53-102c-51 0-55 48-55 102 0 53 5 102 54 102" id="aD"/><path d="M33 0v-38h34V0H33" id="aE"/><path d="M80-196l47-18 7 23-49 13 32 44-20 13-27-46-27 45-21-12 33-44-49-13 8-23 47 19-2-53h23" id="aF"/><g id="A"><use transform="matrix(0.05,0,0,0.05,0,0)" xlink:href="#aD"/><use transform="matrix(0.05,0,0,0.05,10,0)" xlink:href="#aE"/><use transform="matrix(0.05,0,0,0.05,15,0)" xlink:href="#aE"/><use transform="matrix(0.05,0,0,0.05,20,0)" xlink:href="#aF"/></g><path d="M27 0v-27h64v-190l-56 39v-29l58-41h29v221h61V0H27" id="aG"/><g id="B"><use transform="matrix(0.05,0,0,0.05,0,0)" xlink:href="#aD"/><use transform="matrix(0.05,0,0,0.05,10,0)" xlink:href="#aE"/><use transform="matrix(0.05,0,0,0.05,15,0)" xlink:href="#aE"/><use transform="matrix(0.05,0,0,0.05,20,0)" xlink:href="#aG"/></g><path d="M210-169c-67 3-38 105-44 169h-31v-121c0-29-5-50-35-48C34-165 62-65 56 0H25l-1-190h30c1 10-1 24 2 32 10-44 99-50 107 0 11-21 27-35 58-36 85-2 47 119 55 194h-31v-121c0-29-5-49-35-48" id="aH"/><path d="M9 0v-24l116-142H16v-24h144v24L44-24h123V0H9" id="aI"/><path d="M85-194c31 0 48 13 60 33l-1-100h32l1 261h-30c-2-10 0-23-3-31C134-8 116 4 85 4 32 4 16-35 15-94c0-66 23-100 70-100zm9 24c-40 0-46 34-46 75 0 40 6 74 45 74 42 0 51-32 51-76 0-42-9-74-50-73" id="aJ"/><path d="M100-194c62-1 85 37 85 99 1 63-27 99-86 99S16-35 15-95c0-66 28-99 85-99zM99-20c44 1 53-31 53-75 0-43-8-75-51-75s-53 32-53 75 10 74 51 75" id="aK"/><path d="M108 0H70L1-190h34L89-25l56-165h34" id="aL"/><path d="M141-36C126-15 110 5 73 4 37 3 15-17 15-53c-1-64 63-63 125-63 3-35-9-54-41-54-24 1-41 7-42 31l-33-3c5-37 33-52 76-52 45 0 72 20 72 64v82c-1 20 7 32 28 27v20c-31 9-61-2-59-35zM48-53c0 20 12 33 32 33 41-3 63-29 60-74-43 2-92-5-92 41zm25-158c8-23 27-35 38-54h36v5l-58 49H73" id="aM"/><g id="C"><use transform="matrix(0.05,0,0,0.05,0,0)" xlink:href="#aH"/><use transform="matrix(0.05,0,0,0.05,14.950000000000001,0)" xlink:href="#aI"/><use transform="matrix(0.05,0,0,0.05,23.950000000000003,0)" xlink:href="#aJ"/><use transform="matrix(0.05,0,0,0.05,33.95,0)" xlink:href="#aK"/><use transform="matrix(0.05,0,0,0.05,43.95,0)" xlink:href="#aL"/><use transform="matrix(0.05,0,0,0.05,52.95,0)" xlink:href="#aM"/></g><path d="M59-47c-2 24 18 29 38 22v24C64 9 27 4 27-40v-127H5v-23h24l9-43h21v43h35v23H59v120" id="aN"/><path d="M114-163C36-179 61-72 57 0H25l-1-190h30c1 12-1 29 2 39 6-27 23-49 58-41v29zm-27-48H51c-13-18-31-30-41-51 32-2 39 20 59 30 19-10 26-32 57-30-9 21-27 33-39 51" id="aO"/><path d="M34 0v-190h32V0H34zM24-211c8-23 27-35 38-54h36v5l-58 49H24" id="aP"/><path d="M141-36C126-15 110 5 73 4 37 3 15-17 15-53c-1-64 63-63 125-63 3-35-9-54-41-54-24 1-41 7-42 31l-33-3c5-37 33-52 76-52 45 0 72 20 72 64v82c-1 20 7 32 28 27v20c-31 9-61-2-59-35zM48-53c0 20 12 33 32 33 41-3 63-29 60-74-43 2-92-5-92 41" id="aQ"/><g id="D"><use transform="matrix(0.05,0,0,0.05,0,0)" xlink:href="#aN"/><use transform="matrix(0.05,0,0,0.05,5,0)" xlink:href="#aO"/><use transform="matrix(0.05,0,0,0.05,10.95,0)" xlink:href="#aP"/><use transform="matrix(0.05,0,0,0.05,15.949999999999998,0)" xlink:href="#aJ"/><use transform="matrix(0.05,0,0,0.05,25.950000000000003,0)" xlink:href="#aQ"/></g><path fill="#3d4752" d="M183-342c139 97 272 144 401 141 177-5 266-73 266-205 0-83-46-143-137-186-66-31-351-127-423-171-120-74-184-178-184-324 0-181 82-309 250-380 237-100 547-49 724 90l-107 195c-117-70-238-105-361-105-149 0-223 63-223 189 0 81 64 140 191 179 19 5 54 16 105 32 192 62 321 144 388 246 41 63 61 141 61 234 0 173-87 302-265 376C603 79 286 20 77-135" id="aR"/><path fill="#3d4752" d="M1152 0H835L431-519V0H168v-1580h263v869l332-383h308L654-620" id="aS"/><g id="E"><use transform="matrix(0.0087890625,0,0,0.0087890625,0,0)" xlink:href="#aR"/><use transform="matrix(0.0087890625,0,0,0.0087890625,10.7841796875,0)" xlink:href="#ao"/><use transform="matrix(0.0087890625,0,0,0.0087890625,20.91796875,0)" xlink:href="#aS"/><use transform="matrix(0.0087890625,0,0,0.0087890625,30.498046875,0)" xlink:href="#Z"/><use transform="matrix(0.0087890625,0,0,0.0087890625,39.1025390625,0)" xlink:href="#ao"/></g><path d="M135-143c-3-34-86-38-87 0 15 53 115 12 119 90S17 21 10-45l28-5c4 36 97 45 98 0-10-56-113-15-118-90-4-57 82-63 122-42 12 7 21 19 24 35" id="aT"/><path d="M100-194c63 0 86 42 84 106H49c0 40 14 67 53 68 26 1 43-12 49-29l28 8c-11 28-37 45-77 45C44 4 14-33 15-96c1-61 26-98 85-98zm52 81c6-60-76-77-97-28-3 7-6 17-6 28h103" id="aU"/><path d="M143 0L79-87 56-68V0H24v-261h32v163l83-92h37l-77 82L181 0h-38" id="aV"/><path d="M96-169c-40 0-48 33-48 73s9 75 48 75c24 0 41-14 43-38l32 2c-6 37-31 61-74 61-59 0-76-41-82-99-10-93 101-131 147-64 4 7 5 14 7 22l-32 3c-4-21-16-35-41-35" id="aW"/><g id="F"><use transform="matrix(0.05,0,0,0.05,0,0)" xlink:href="#aT"/><use transform="matrix(0.05,0,0,0.05,9,0)" xlink:href="#aU"/><use transform="matrix(0.05,0,0,0.05,19,0)" xlink:href="#aV"/><use transform="matrix(0.05,0,0,0.05,28,0)" xlink:href="#aW"/><use transform="matrix(0.05,0,0,0.05,37,0)" xlink:href="#aU"/></g><path d="M24 0v-248h195v40H76v63h132v40H76v65h150V0H24" id="aX"/><path d="M144 0l-44-69L55 0H2l70-98-66-92h53l41 62 40-62h54l-67 91 71 99h-54" id="aY"/><path d="M135-194c53 0 70 44 70 98 0 56-19 98-73 100-31 1-45-17-59-34 3 33 2 69 2 105H25l-1-265h48c2 10 0 23 3 31 11-24 29-35 60-35zM114-30c33 0 39-31 40-66 0-38-9-64-40-64-56 0-55 130 0 130" id="aZ"/><path d="M185-48c-13 30-37 53-82 52C43 2 14-33 14-96s30-98 90-98c62 0 83 45 84 108H66c0 31 8 55 39 56 18 0 30-7 34-22zm-45-69c5-46-57-63-70-21-2 6-4 13-4 21h74" id="ba"/><path d="M135-150c-39-12-60 13-60 57V0H25l-1-190h47c2 13-1 29 3 40 6-28 27-53 61-41v41" id="bb"/><path d="M115-3C79 11 28 4 28-45v-112H4v-33h27l15-45h31v45h36v33H77v99c-1 23 16 31 38 25v30" id="bc"/><path d="M25 0v-190h50V0H25zm-5-208v-5l45-51h45v8l-60 48H20" id="bd"/><path d="M12 0v-35l95-120H19v-35h142v35L67-36h103V0H12" id="be"/><path d="M133-34C117-15 103 5 69 4 32 3 11-16 11-54c-1-60 55-63 116-61 1-26-3-47-28-47-18 1-26 9-28 27l-52-2c7-38 36-58 82-57s74 22 75 68l1 82c-1 14 12 18 25 15v27c-30 8-71 5-69-32zm-48 3c29 0 43-24 42-57-32 0-66-3-65 30 0 17 8 27 23 27" id="bf"/><g id="G"><use transform="matrix(0.05,0,0,0.05,0,0)" xlink:href="#aX"/><use transform="matrix(0.05,0,0,0.05,12,0)" xlink:href="#aY"/><use transform="matrix(0.05,0,0,0.05,22,0)" xlink:href="#aZ"/><use transform="matrix(0.05,0,0,0.05,32.95,0)" xlink:href="#ba"/><use transform="matrix(0.05,0,0,0.05,42.95,0)" xlink:href="#bb"/><use transform="matrix(0.05,0,0,0.05,49.95,0)" xlink:href="#bc"/><use transform="matrix(0.05,0,0,0.05,55.900000000000006,0)" xlink:href="#bd"/><use transform="matrix(0.05,0,0,0.05,60.900000000000006,0)" xlink:href="#be"/><use transform="matrix(0.05,0,0,0.05,69.9,0)" xlink:href="#bf"/></g><path d="M141 0L90-78 38 0H4l68-98-65-92h35l48 74 47-74h35l-64 92 68 98h-35" id="bg"/><path d="M115-194c55 1 70 41 70 98S169 2 115 4C84 4 66-9 55-30l1 105H24l-1-265h31l2 30c10-21 28-34 59-34zm-8 174c40 0 45-34 45-75s-6-73-45-74c-42 0-51 32-51 76 0 43 10 73 51 73" id="bh"/><path d="M114-163C36-179 61-72 57 0H25l-1-190h30c1 12-1 29 2 39 6-27 23-49 58-41v29" id="bi"/><g id="H"><use transform="matrix(0.05,0,0,0.05,0,0)" xlink:href="#aU"/><use transform="matrix(0.05,0,0,0.05,10,0)" xlink:href="#bg"/><use transform="matrix(0.05,0,0,0.05,19,0)" xlink:href="#bh"/><use transform="matrix(0.05,0,0,0.05,29,0)" xlink:href="#aU"/><use transform="matrix(0.05,0,0,0.05,39,0)" xlink:href="#bi"/><use transform="matrix(0.05,0,0,0.05,44.95,0)" xlink:href="#aN"/><use transform="matrix(0.05,0,0,0.05,49.95,0)" xlink:href="#aP"/><use transform="matrix(0.05,0,0,0.05,54.95,0)" xlink:href="#aI"/><use transform="matrix(0.05,0,0,0.05,63.95,0)" xlink:href="#aQ"/></g><path fill="#3d4752" d="M311-1489L685-377l375-1112h268L802 0H554L27-1489h284" id="bj"/><g id="I"><use transform="matrix(0.0087890625,0,0,0.0087890625,0,0)" xlink:href="#bj"/><use transform="matrix(0.0087890625,0,0,0.0087890625,11.9091796875,0)" xlink:href="#at"/><use transform="matrix(0.0087890625,0,0,0.0087890625,23.642578125,0)" xlink:href="#Z"/></g><g id="J"><use transform="matrix(0.0087890625,0,0,0.0087890625,0,0)" xlink:href="#am"/><use transform="matrix(0.0087890625,0,0,0.0087890625,10.6083984375,0)" xlink:href="#aa"/><use transform="matrix(0.0087890625,0,0,0.0087890625,20.759765625,0)" xlink:href="#am"/><use transform="matrix(0.0087890625,0,0,0.0087890625,31.3681640625,0)" xlink:href="#ar"/><use transform="matrix(0.0087890625,0,0,0.0087890625,36.6328125,0)" xlink:href="#af"/></g><path fill="#3d4752" d="M806-1530l-66 177c-158-82-260-41-259 189v70h264v199H481V0H218v-895H19v-199h199c-9-207 32-364 147-449 126-93 294-66 441 13" id="bk"/><g id="K"><use transform="matrix(0.0087890625,0,0,0.0087890625,0,0)" xlink:href="#ak"/><use transform="matrix(0.0087890625,0,0,0.0087890625,11.390625,0)" xlink:href="#az"/><use transform="matrix(0.0087890625,0,0,0.0087890625,17.0859375,0)" xlink:href="#Y"/><use transform="matrix(0.0087890625,0,0,0.0087890625,26.9912109375,0)" xlink:href="#af"/><use transform="matrix(0.0087890625,0,0,0.0087890625,35.8154296875,0)" xlink:href="#ar"/><use transform="matrix(0.0087890625,0,0,0.0087890625,41.080078125,0)" xlink:href="#bk"/><use transform="matrix(0.0087890625,0,0,0.0087890625,47.953125,0)" xlink:href="#ar"/><use transform="matrix(0.0087890625,0,0,0.0087890625,53.2177734375,0)" xlink:href="#aS"/><use transform="matrix(0.0087890625,0,0,0.0087890625,63.158203125,0)" xlink:href="#Y"/><use transform="matrix(0.0087890625,0,0,0.0087890625,73.0634765625,0)" xlink:href="#Z"/><use transform="matrix(0.0087890625,0,0,0.0087890625,81.66796875,0)" xlink:href="#ao"/></g><g id="L"><use transform="matrix(0.0087890625,0,0,0.0087890625,0,0)" xlink:href="#au"/><use transform="matrix(0.0087890625,0,0,0.0087890625,8.6044921875,0)" xlink:href="#Y"/><use transform="matrix(0.0087890625,0,0,0.0087890625,18.509765625,0)" xlink:href="#ae"/><use transform="matrix(0.0087890625,0,0,0.0087890625,34.822265625,0)" xlink:href="#at"/><use transform="matrix(0.0087890625,0,0,0.0087890625,46.5556640625,0)" xlink:href="#af"/><use transform="matrix(0.0087890625,0,0,0.0087890625,55.3798828125,0)" xlink:href="#ag"/><use transform="matrix(0.0087890625,0,0,0.0087890625,62.4814453125,0)" xlink:href="#ac"/><use transform="matrix(0.0087890625,0,0,0.0087890625,73.2041015625,0)" xlink:href="#ax"/><use transform="matrix(0.0087890625,0,0,0.0087890625,83.109375,0)" xlink:href="#ac"/><use transform="matrix(0.0087890625,0,0,0.0087890625,93.83203125,0)" xlink:href="#ad"/></g><path d="M24 0v-261h32V0H24" id="bl"/><path d="M24-231v-30h32v30H24zM24 0v-190h32V0H24" id="bm"/><path d="M101-234c-31-9-42 10-38 44h38v23H63V0H32v-167H5v-23h27c-7-52 17-82 69-68v24" id="bn"/><g id="M"><use transform="matrix(0.05,0,0,0.05,0,0)" xlink:href="#aV"/><use transform="matrix(0.05,0,0,0.05,9,0)" xlink:href="#bl"/><use transform="matrix(0.05,0,0,0.05,12.949999999999998,0)" xlink:href="#aQ"/><use transform="matrix(0.05,0,0,0.05,22.95,0)" xlink:href="#aT"/><use transform="matrix(0.05,0,0,0.05,31.950000000000003,0)" xlink:href="#bm"/><use transform="matrix(0.05,0,0,0.05,35.9,0)" xlink:href="#bn"/><use transform="matrix(0.05,0,0,0.05,40.9,0)" xlink:href="#bm"/><use transform="matrix(0.05,0,0,0.05,44.85,0)" xlink:href="#aV"/><use transform="matrix(0.05,0,0,0.05,53.85,0)" xlink:href="#aQ"/><use transform="matrix(0.05,0,0,0.05,63.85,0)" xlink:href="#aW"/><use transform="matrix(0.05,0,0,0.05,72.85,0)" xlink:href="#aU"/></g><path d="M100-194c63 0 86 42 84 106H49c0 40 14 67 53 68 26 1 43-12 49-29l28 8c-11 28-37 45-77 45C44 4 14-33 15-96c1-61 26-98 85-98zm52 81c6-60-76-77-97-28-3 7-6 17-6 28h103zm-34-98H82c-13-18-31-30-41-51 32-2 39 20 59 30 19-10 26-32 57-30-9 21-27 33-39 51" id="bo"/><path d="M117-194c89-4 53 116 60 194h-32v-121c0-31-8-49-39-48C34-167 62-67 57 0H25l-1-190h30c1 10-1 24 2 32 11-22 29-35 61-36" id="bp"/><g id="N"><use transform="matrix(0.05,0,0,0.05,0,0)" xlink:href="#aI"/><use transform="matrix(0.05,0,0,0.05,9,0)" xlink:href="#aQ"/><use transform="matrix(0.05,0,0,0.05,19,0)" xlink:href="#aH"/><use transform="matrix(0.05,0,0,0.05,33.95,0)" xlink:href="#bo"/><use transform="matrix(0.05,0,0,0.05,43.95,0)" xlink:href="#aT"/><use transform="matrix(0.05,0,0,0.05,52.95,0)" xlink:href="#aN"/><use transform="matrix(0.05,0,0,0.05,57.95,0)" xlink:href="#bp"/><use transform="matrix(0.05,0,0,0.05,67.95,0)" xlink:href="#aM"/><use transform="matrix(0.05,0,0,0.05,77.95,0)" xlink:href="#bp"/><use transform="matrix(0.05,0,0,0.05,87.95,0)" xlink:href="#aP"/></g><g id="O"><use transform="matrix(0.0087890625,0,0,0.0087890625,0,0)" xlink:href="#ai"/><use transform="matrix(0.0087890625,0,0,0.0087890625,8.89453125,0)" xlink:href="#Y"/><use transform="matrix(0.0087890625,0,0,0.0087890625,18.7998046875,0)" xlink:href="#aS"/><use transform="matrix(0.0087890625,0,0,0.0087890625,28.740234375,0)" xlink:href="#aB"/><use transform="matrix(0.0087890625,0,0,0.0087890625,39.462890625,0)" xlink:href="#az"/><use transform="matrix(0.0087890625,0,0,0.0087890625,45.158203125,0)" xlink:href="#ag"/><use transform="matrix(0.0087890625,0,0,0.0087890625,52.259765625,0)" xlink:href="#Y"/></g><path d="M84 4C-5 8 30-112 23-190h32v120c0 31 7 50 39 49 72-2 45-101 50-169h31l1 190h-30c-1-10 1-25-2-33-11 22-28 36-60 37" id="bq"/><g id="P"><use transform="matrix(0.05,0,0,0.05,0,0)" xlink:href="#bn"/><use transform="matrix(0.05,0,0,0.05,5,0)" xlink:href="#aQ"/><use transform="matrix(0.05,0,0,0.05,15,0)" xlink:href="#aV"/><use transform="matrix(0.05,0,0,0.05,24,0)" xlink:href="#bq"/><use transform="matrix(0.05,0,0,0.05,34,0)" xlink:href="#bl"/><use transform="matrix(0.05,0,0,0.05,37.95,0)" xlink:href="#aN"/><use transform="matrix(0.05,0,0,0.05,42.95,0)" xlink:href="#aQ"/></g><path fill="#3d4752" d="M105-1270v-219h958v207L362-219h733V0H60v-211l699-1059H105" id="br"/><path fill="#3d4752" d="M478 23C-28 46 171-637 131-1081h182v683c0 176 40 284 222 279 410-11 256-575 284-961h176l6 1081H830c-6-57 6-142-11-188C756-62 660 18 478 23zm97-1673c148 0 239 91 239 239 0 154-102 228-239 245-142-11-245-91-245-245 0-148 97-239 245-239zm-137 239c-11 148 210 182 256 57 34-91-17-188-119-188-91 0-131 57-137 131" id="bs"/><g id="Q"><use transform="matrix(0.0087890625,0,0,0.0087890625,0,0)" xlink:href="#br"/><use transform="matrix(0.0087890625,0,0,0.0087890625,10.1953125,0)" xlink:href="#am"/><use transform="matrix(0.0087890625,0,0,0.0087890625,20.8037109375,0)" xlink:href="#bs"/><use transform="matrix(0.0087890625,0,0,0.0087890625,32.537109375,0)" xlink:href="#af"/><use transform="matrix(0.0087890625,0,0,0.0087890625,41.361328125,0)" xlink:href="#aa"/><use transform="matrix(0.0087890625,0,0,0.0087890625,51.5126953125,0)" xlink:href="#aA"/></g><g id="R"><use transform="matrix(0.0087890625,0,0,0.0087890625,0,0)" xlink:href="#am"/><use transform="matrix(0.0087890625,0,0,0.0087890625,10.6083984375,0)" xlink:href="#aa"/><use transform="matrix(0.0087890625,0,0,0.0087890625,20.759765625,0)" xlink:href="#aq"/><use transform="matrix(0.0087890625,0,0,0.0087890625,31.3681640625,0)" xlink:href="#ax"/><use transform="matrix(0.0087890625,0,0,0.0087890625,41.2734375,0)" xlink:href="#ac"/><use transform="matrix(0.0087890625,0,0,0.0087890625,51.99609375,0)" xlink:href="#ad"/></g><path fill="#3d4752" d="M768-814c-17-193-489-216-495 0 85 302 654 68 677 512S97 119 57-256l159-28c23 205 552 256 558 0-57-319-643-85-671-512-23-324 466-358 694-239 68 40 119 108 137 199zm-159-386H404c-74-102-176-171-233-290 182-11 222 114 336 171 108-57 148-182 324-171-51 119-154 188-222 290" id="bt"/><g id="S"><use transform="matrix(0.0087890625,0,0,0.0087890625,0,0)" xlink:href="#am"/><use transform="matrix(0.0087890625,0,0,0.0087890625,10.6083984375,0)" xlink:href="#av"/><use transform="matrix(0.0087890625,0,0,0.0087890625,16.55859375,0)" xlink:href="#ar"/><use transform="matrix(0.0087890625,0,0,0.0087890625,21.8232421875,0)" xlink:href="#ap"/><use transform="matrix(0.0087890625,0,0,0.0087890625,32.5458984375,0)" xlink:href="#az"/><use transform="matrix(0.0087890625,0,0,0.0087890625,38.2412109375,0)" xlink:href="#ax"/><use transform="matrix(0.0087890625,0,0,0.0087890625,48.146484375,0)" xlink:href="#bt"/><use transform="matrix(0.0087890625,0,0,0.0087890625,57.146484375,0)" xlink:href="#aS"/><use transform="matrix(0.0087890625,0,0,0.0087890625,67.0869140625,0)" xlink:href="#ay"/></g><path d="M84 4C-5 8 30-112 23-190h32v120c0 31 7 50 39 49 72-2 45-101 50-169h31l1 190h-30c-1-10 1-25-2-33-11 22-28 36-60 37zm17-294c26 0 42 16 42 42 0 27-18 40-42 43-25-2-43-16-43-43 0-26 17-42 43-42zm-24 42c-2 26 37 32 45 10 6-16-3-33-21-33-16 0-23 10-24 23" id="bu"/><path d="M115-194c53 0 69 39 70 98 0 66-23 100-70 100C84 3 66-7 56-30L54 0H23l1-261h32v101c10-23 28-34 59-34zm-8 174c40 0 45-34 45-75 0-40-5-75-45-74-42 0-51 32-51 76 0 43 10 73 51 73" id="bv"/><g id="T"><use transform="matrix(0.05,0,0,0.05,0,0)" xlink:href="#aI"/><use transform="matrix(0.05,0,0,0.05,9,0)" xlink:href="#bh"/><use transform="matrix(0.05,0,0,0.05,19,0)" xlink:href="#bu"/><use transform="matrix(0.05,0,0,0.05,29,0)" xlink:href="#aT"/><use transform="matrix(0.05,0,0,0.05,38,0)" xlink:href="#aK"/><use transform="matrix(0.05,0,0,0.05,48,0)" xlink:href="#bv"/></g><g id="U"><use transform="matrix(0.05,0,0,0.05,0,0)" xlink:href="#bh"/><use transform="matrix(0.05,0,0,0.05,10,0)" xlink:href="#aK"/><use transform="matrix(0.05,0,0,0.05,20,0)" xlink:href="#aJ"/><use transform="matrix(0.05,0,0,0.05,30,0)" xlink:href="#aM"/><use transform="matrix(0.05,0,0,0.05,40,0)" xlink:href="#bp"/><use transform="matrix(0.05,0,0,0.05,50,0)" xlink:href="#aP"/></g><path d="M106-169C34-169 62-67 57 0H25v-261h32l-1 103c12-21 28-36 61-36 89 0 53 116 60 194h-32v-121c2-32-8-49-39-48" id="bw"/><path d="M135-143c-3-34-86-38-87 0 15 53 115 12 119 90S17 21 10-45l28-5c4 36 97 45 98 0-10-56-113-15-118-90-4-57 82-63 122-42 12 7 21 19 24 35zm-28-68H71c-13-18-31-30-41-51 32-2 39 20 59 30 19-10 26-32 57-30-9 21-27 33-39 51" id="bx"/><path d="M179-190L93 31C79 59 56 82 12 73V49c39 6 53-20 64-50L1-190h34L92-34l54-156h33" id="by"/><g id="V"><use transform="matrix(0.05,0,0,0.05,0,0)" xlink:href="#bh"/><use transform="matrix(0.05,0,0,0.05,10,0)" xlink:href="#aO"/><use transform="matrix(0.05,0,0,0.05,15.949999999999998,0)" xlink:href="#bm"/><use transform="matrix(0.05,0,0,0.05,19.9,0)" xlink:href="#bw"/><use transform="matrix(0.05,0,0,0.05,29.899999999999995,0)" xlink:href="#bl"/><use transform="matrix(0.05,0,0,0.05,33.85,0)" xlink:href="#aM"/><use transform="matrix(0.05,0,0,0.05,43.85,0)" xlink:href="#bx"/><use transform="matrix(0.05,0,0,0.05,52.85,0)" xlink:href="#aV"/><use transform="matrix(0.05,0,0,0.05,61.85,0)" xlink:href="#by"/></g></defs></g></svg>