<svg xmlns="http://www.w3.org/2000/svg" xmlns:xlink="http://www.w3.org/1999/xlink" xmlns:lucid="lucid" width="1525.64" height="997"><g transform="translate(-119 -3)" lucid:page-tab-id="0_0"><path d="M0 0h1760v1040H0z" fill="#f2f2f2"/><path d="M420.23 319.5H840v282H420.23z" stroke="#2ba9e0" stroke-width="2" fill="#fff"/><path d="M420.23 353.35H840M420.23 531.18H840" stroke="#2ba9e0" stroke-width="2" fill="none"/><use xlink:href="#a" transform="matrix(1,0,0,1,428.2334784740984,327.5027858894158) translate(91.5478515625 13.9658203125)"/><use xlink:href="#b" transform="matrix(1,0,0,1,428.2334784740984,327.5027858894158) translate(168.583984375 13.9658203125)"/><use xlink:href="#c" transform="matrix(1,0,0,1,428.2334784740984,327.5027858894158) translate(221.51171875 13.9658203125)"/><use xlink:href="#d" transform="matrix(1,0,0,1,428.2334784740984,327.5027858894158) translate(247.4130859375 13.9658203125)"/><use xlink:href="#e" transform="matrix(1,0,0,1,428.2334784740984,327.5027858894158) translate(288.431640625 13.9658203125)"/><use xlink:href="#f" transform="matrix(1,0,0,1,432.2334784740984,361.3445827644158) translate(0 32.4404296875)"/><use xlink:href="#g" transform="matrix(1,0,0,1,432.2334784740984,361.3445827644158) translate(17.0068359375 32.4404296875)"/><use xlink:href="#h" transform="matrix(1,0,0,1,432.2334784740984,361.3445827644158) translate(69.275390625 32.4404296875)"/><use xlink:href="#i" transform="matrix(1,0,0,1,432.2334784740984,361.3445827644158) translate(122.0185546875 32.4404296875)"/><use xlink:href="#j" transform="matrix(1,0,0,1,432.2334784740984,361.3445827644158) translate(176.994140625 32.4404296875)"/><use xlink:href="#k" transform="matrix(1,0,0,1,432.2334784740984,361.3445827644158) translate(0 50.2822265625)"/><use xlink:href="#l" transform="matrix(1,0,0,1,432.2334784740984,361.3445827644158) translate(17.0068359375 50.2822265625)"/><use xlink:href="#m" transform="matrix(1,0,0,1,432.2334784740984,361.3445827644158) translate(82.775390625 50.2822265625)"/><use xlink:href="#n" transform="matrix(1,0,0,1,432.2334784740984,361.3445827644158) translate(115.6376953125 50.2822265625)"/><use xlink:href="#o" transform="matrix(1,0,0,1,432.2334784740984,361.3445827644158) translate(197.26171875 50.2822265625)"/><use xlink:href="#p" transform="matrix(1,0,0,1,432.2334784740984,361.3445827644158) translate(279.755859375 50.2822265625)"/><use xlink:href="#f" transform="matrix(1,0,0,1,432.2334784740984,361.3445827644158) translate(0 68.1240234375)"/><use xlink:href="#l" transform="matrix(1,0,0,1,432.2334784740984,361.3445827644158) translate(17.0068359375 68.1240234375)"/><use xlink:href="#m" transform="matrix(1,0,0,1,432.2334784740984,361.3445827644158) translate(82.775390625 68.1240234375)"/><use xlink:href="#n" transform="matrix(1,0,0,1,432.2334784740984,361.3445827644158) translate(115.6376953125 68.1240234375)"/><use xlink:href="#o" transform="matrix(1,0,0,1,432.2334784740984,361.3445827644158) translate(197.26171875 68.1240234375)"/><use xlink:href="#q" transform="matrix(1,0,0,1,432.2334784740984,361.3445827644158) translate(279.755859375 68.1240234375)"/><use xlink:href="#r" transform="matrix(1,0,0,1,432.2334784740984,361.3445827644158) translate(294.57421875 68.1240234375)"/><use xlink:href="#j" transform="matrix(1,0,0,1,432.2334784740984,361.3445827644158) translate(347.9501953125 68.1240234375)"/><use xlink:href="#k" transform="matrix(1,0,0,1,432.2334784740984,361.3445827644158) translate(0 85.9658203125)"/><use xlink:href="#s" transform="matrix(1,0,0,1,432.2334784740984,361.3445827644158) translate(17.0068359375 85.9658203125)"/><use xlink:href="#t" transform="matrix(1,0,0,1,432.2334784740984,361.3445827644158) translate(63.3076171875 85.9658203125)"/><use xlink:href="#j" transform="matrix(1,0,0,1,432.2334784740984,361.3445827644158) translate(137.4697265625 85.9658203125)"/><use xlink:href="#k" transform="matrix(1,0,0,1,432.2334784740984,361.3445827644158) translate(0 103.8076171875)"/><use xlink:href="#s" transform="matrix(1,0,0,1,432.2334784740984,361.3445827644158) translate(17.0068359375 103.8076171875)"/><use xlink:href="#t" transform="matrix(1,0,0,1,432.2334784740984,361.3445827644158) translate(63.3076171875 103.8076171875)"/><use xlink:href="#q" transform="matrix(1,0,0,1,432.2334784740984,361.3445827644158) translate(137.4697265625 103.8076171875)"/><use xlink:href="#r" transform="matrix(1,0,0,1,432.2334784740984,361.3445827644158) translate(152.2880859375 103.8076171875)"/><use xlink:href="#j" transform="matrix(1,0,0,1,432.2334784740984,361.3445827644158) translate(205.6640625 103.8076171875)"/><use xlink:href="#k" transform="matrix(1,0,0,1,432.2334784740984,361.3445827644158) translate(0 121.6494140625)"/><use xlink:href="#u" transform="matrix(1,0,0,1,432.2334784740984,361.3445827644158) translate(17.0068359375 121.6494140625)"/><use xlink:href="#j" transform="matrix(1,0,0,1,432.2334784740984,361.3445827644158) translate(115.2421875 121.6494140625)"/><use xlink:href="#k" transform="matrix(1,0,0,1,432.2334784740984,361.3445827644158) translate(0 139.4912109375)"/><use xlink:href="#v" transform="matrix(1,0,0,1,432.2334784740984,361.3445827644158) translate(17.0068359375 139.4912109375)"/><use xlink:href="#c" transform="matrix(1,0,0,1,432.2334784740984,361.3445827644158) translate(93.076171875 139.4912109375)"/><use xlink:href="#w" transform="matrix(1,0,0,1,432.2334784740984,361.3445827644158) translate(118.9775390625 139.4912109375)"/><use xlink:href="#x" transform="matrix(1,0,0,1,432.2334784740984,361.3445827644158) translate(166.341796875 139.4912109375)"/><use xlink:href="#y" transform="matrix(1,0,0,1,432.2334784740984,361.3445827644158) translate(252.6240234375 139.4912109375)"/><path d="M529.2 24h201.83v261H529.2z" stroke="#2ba9e0" stroke-width="2" fill="#ccc"/><path d="M529.2 57.84h201.83m-201.82 176h201.83" stroke="#2ba9e0" stroke-width="2" fill="none"/><use xlink:href="#a" transform="matrix(1,0,0,1,537.2076483937923,32) translate(30.65478515625 13.9658203125)"/><use xlink:href="#z" transform="matrix(1,0,0,1,537.2076483937923,32) translate(107.69091796875 13.9658203125)"/><use xlink:href="#f" transform="matrix(1,0,0,1,541.2076483937923,65.841796875) translate(0 23.01953125)"/><use xlink:href="#A" transform="matrix(1,0,0,1,541.2076483937923,65.841796875) translate(17.0068359375 23.01953125)"/><use xlink:href="#f" transform="matrix(1,0,0,1,541.2076483937923,65.841796875) translate(0 40.861328125)"/><use xlink:href="#B" transform="matrix(1,0,0,1,541.2076483937923,65.841796875) translate(17.0068359375 40.861328125)"/><use xlink:href="#f" transform="matrix(1,0,0,1,541.2076483937923,65.841796875) translate(0 58.703125)"/><use xlink:href="#C" transform="matrix(1,0,0,1,541.2076483937923,65.841796875) translate(17.0068359375 58.703125)"/><use xlink:href="#f" transform="matrix(1,0,0,1,541.2076483937923,65.841796875) translate(0 76.544921875)"/><use xlink:href="#D" transform="matrix(1,0,0,1,541.2076483937923,65.841796875) translate(17.0068359375 76.544921875)"/><use xlink:href="#f" transform="matrix(1,0,0,1,541.2076483937923,65.841796875) translate(0 94.38671875)"/><use xlink:href="#E" transform="matrix(1,0,0,1,541.2076483937923,65.841796875) translate(17.0068359375 94.38671875)"/><use xlink:href="#f" transform="matrix(1,0,0,1,541.2076483937923,65.841796875) translate(0 112.228515625)"/><use xlink:href="#F" transform="matrix(1,0,0,1,541.2076483937923,65.841796875) translate(17.0068359375 112.228515625)"/><use xlink:href="#G" transform="matrix(1,0,0,1,541.2076483937923,65.841796875) translate(63.5537109375 112.228515625)"/><use xlink:href="#f" transform="matrix(1,0,0,1,541.2076483937923,65.841796875) translate(0 130.0703125)"/><use xlink:href="#H" transform="matrix(1,0,0,1,541.2076483937923,65.841796875) translate(17.0068359375 130.0703125)"/><use xlink:href="#I" transform="matrix(1,0,0,1,541.2076483937923,65.841796875) translate(80.1650390625 130.0703125)"/><use xlink:href="#J" transform="matrix(1,0,0,1,541.2076483937923,65.841796875) translate(0 147.912109375)"/><path d="M630.12 317.5v-7.02" stroke="#000" stroke-width="2" fill="none"/><path d="M631.12 318.5h-2v-1.02h2z" stroke="#000" stroke-width=".05"/><path d="M630.12 287.96l12.72 21.52H617.4z" stroke="#000" stroke-width="2" fill="#fff"/><path d="M1080 33h201.82v136H1080z" stroke="#2ba9e0" stroke-width="2" fill="#ccc"/><path d="M1080 66.84h201.82M1080 117.96h201.82" stroke="#2ba9e0" stroke-width="2" fill="none"/><use xlink:href="#K" transform="matrix(1,0,0,1,1088,41) translate(38.701171875 13.9658203125)"/><use xlink:href="#L" transform="matrix(1,0,0,1,1088,41) translate(108.46875 13.9658203125)"/><use xlink:href="#f" transform="matrix(1,0,0,1,1092,74.841796875) translate(0 22.9658203125)"/><use xlink:href="#M" transform="matrix(1,0,0,1,1092,74.841796875) translate(17.0068359375 22.9658203125)"/><path d="M842 348.34h338.9V171" stroke="#000" stroke-width="2" fill="none"/><path d="M842.03 349.34H841v-2h1.03zM1181.9 171.03h-2V170h2z" stroke="#000" stroke-width=".05"/><use xlink:href="#N" transform="matrix(1,0,0,1,863.5413812241012,352.33650004916365) translate(0 14.4)"/><use xlink:href="#O" transform="matrix(1,0,0,1,1142.909090909091,201.50088338114352) translate(0 14.4)"/><use xlink:href="#P" transform="matrix(1,0,0,1,963.9653072505544,322.7365000491636) translate(0 14.4)"/><use xlink:href="#Q" transform="matrix(1,0,0,1,963.9653072505544,322.7365000491636) translate(67.95 14.4)"/><path d="M520 689h201.82v136H520z" stroke="#2ba9e0" stroke-width="2" fill="#ccc"/><path d="M520 722.84h201.82M520 773.96h201.82" stroke="#2ba9e0" stroke-width="2" fill="none"/><use xlink:href="#R" transform="matrix(1,0,0,1,528.0000000500203,697) translate(68.3818359375 13.9658203125)"/><use xlink:href="#f" transform="matrix(1,0,0,1,532.0000000500203,730.841796875) translate(0 22.9658203125)"/><use xlink:href="#M" transform="matrix(1,0,0,1,532.0000000500203,730.841796875) translate(17.0068359375 22.9658203125)"/><path d="M654.47 603.5v41.75H620.9V687" stroke="#000" stroke-width="2" fill="none"/><path d="M655.47 603.53h-2v-1.03h2zM621.9 688h-2v-1.03h2z" stroke="#000" stroke-width=".05"/><use xlink:href="#N" transform="matrix(1,0,0,1,619.4728133512566,609.1244562770978) translate(0 14.4)"/><use xlink:href="#O" transform="matrix(1,0,0,1,628.9090909591112,664.8760314384989) translate(0 14.4)"/><use xlink:href="#S" transform="matrix(1,0,0,1,573.8139638488682,625.4849180297416) translate(0 14.4)"/><path d="M140 345.13h201.82v140H140z" stroke="#2ba9e0" stroke-width="2" fill="#fff"/><path d="M140 382.73h201.82M140 433.83h201.82" stroke="#2ba9e0" stroke-width="2" fill="none"/><use xlink:href="#T" transform="matrix(1,0,0,1,148,353.12730329773603) translate(53.05 14.6)"/><path d="M343.82 400.02h74.4" stroke="#000" stroke-width="2" fill="none"/><path d="M343.84 401.02h-1.02v-2h1.02zM419.23 401.02h-1.02v-2h1.03z" stroke="#000" stroke-width=".05"/><use xlink:href="#N" transform="matrix(1,0,0,1,342.3083581066059,374.42345416852817) translate(0 14.4)"/><use xlink:href="#N" transform="matrix(1,0,0,1,392.84223820484516,374.42345416852817) translate(0 14.4)"/><use xlink:href="#U" transform="matrix(1,0,0,1,344.0508302370491,404.02345416852813) translate(0 14.4)"/><path d="M140 24h201.82v154H140z" stroke="#2ba9e0" stroke-width="2" fill="#ccc"/><path d="M140 57.84h201.82M140 126.8h201.82" stroke="#2ba9e0" stroke-width="2" fill="none"/><use xlink:href="#V" transform="matrix(1,0,0,1,148,32) translate(76.87646484375 13.9658203125)"/><use xlink:href="#f" transform="matrix(1,0,0,1,152,65.841796875) translate(0 22.544921875)"/><use xlink:href="#B" transform="matrix(1,0,0,1,152,65.841796875) translate(17.0068359375 22.544921875)"/><use xlink:href="#f" transform="matrix(1,0,0,1,152,65.841796875) translate(0 40.38671875)"/><use xlink:href="#W" transform="matrix(1,0,0,1,152,65.841796875) translate(17.0068359375 40.38671875)"/><path d="M240.9 343.13V203.48" stroke="#000" stroke-width="2" fill="none"/><path d="M241.9 344.13h-2v-1.03h2z" stroke="#000" stroke-width=".05"/><path d="M240.9 180.97l12.73 21.5H228.2z" stroke="#000" stroke-width="2" fill="#fff"/><path d="M260 689h201.82v154H260z" stroke="#2ba9e0" stroke-width="2" fill="#ccc"/><path d="M260 740.68h201.82M260 791.8h201.82" stroke="#2ba9e0" stroke-width="2" fill="none"/><use xlink:href="#X" transform="matrix(1,0,0,1,268,697) translate(47.09912109375 14.044921875)"/><use xlink:href="#Y" transform="matrix(1,0,0,1,268,697) translate(43.45166015625 31.88671875)"/><use xlink:href="#f" transform="matrix(1,0,0,1,272,748.68359375) translate(0 22.9658203125)"/><use xlink:href="#M" transform="matrix(1,0,0,1,272,748.68359375) translate(17.0068359375 22.9658203125)"/><path d="M418.23 543.33l-57.32-.03V687" stroke="#000" stroke-width="2" fill="none"/><path d="M419.23 542.33v2h-1.02v-2zM361.9 688h-2v-1.03h2z" stroke="#000" stroke-width=".05"/><use xlink:href="#N" transform="matrix(1,0,0,1,384.5082139583467,517.7213571589199) translate(0 14.4)"/><use xlink:href="#O" transform="matrix(1,0,0,1,368.9090909090909,662.6557567737681) translate(0 14.4)"/><use xlink:href="#Z" transform="matrix(1,0,0,1,172.10909090909084,605.2598729378648) translate(0 14.4)"/><use xlink:href="#aa" transform="matrix(1,0,0,1,172.10909090909084,605.2598729378648) translate(87.85 14.4)"/><path d="M1220 443.46h201.82v136H1220z" stroke="#2ba9e0" stroke-width="2" fill="#ccc"/><path d="M1220 477.3h201.82M1220 528.4h201.82" stroke="#2ba9e0" stroke-width="2" fill="none"/><use xlink:href="#ab" transform="matrix(1,0,0,1,1228,451.4584790913254) translate(47.2705078125 13.9658203125)"/><use xlink:href="#e" transform="matrix(1,0,0,1,1228,451.4584790913254) translate(114.708984375 13.9658203125)"/><use xlink:href="#f" transform="matrix(1,0,0,1,1232,485.3002759663254) translate(0 22.9658203125)"/><use xlink:href="#M" transform="matrix(1,0,0,1,1232,485.3002759663254) translate(17.0068359375 22.9658203125)"/><path d="M842 453.4h376" stroke="#000" stroke-width="2" fill="none"/><path d="M842.03 454.4H841v-2h1.03zM1219 454.4h-1.03v-2h1.03z" stroke="#000" stroke-width=".05"/><use xlink:href="#N" transform="matrix(1,0,0,1,861.1976750930759,457.41297092422053) translate(0 14.4)"/><use xlink:href="#O" transform="matrix(1,0,0,1,1180.6862026094989,427.8129709242205) translate(0 14.4)"/><use xlink:href="#ac" transform="matrix(1,0,0,1,980.1450206174484,427.8129709242205) translate(0 14.4)"/><path d="M760 689h201.82v154H760z" stroke="#2ba9e0" stroke-width="2" fill="#ccc"/><path d="M760 740.68h201.82M760 791.8h201.82" stroke="#2ba9e0" stroke-width="2" fill="none"/><use xlink:href="#ad" transform="matrix(1,0,0,1,768,697) translate(30.67236328125 14.044921875)"/><use xlink:href="#ae" transform="matrix(1,0,0,1,768,697) translate(98.06689453125 14.044921875)"/><use xlink:href="#af" transform="matrix(1,0,0,1,768,697) translate(54.6884765625 31.88671875)"/><use xlink:href="#f" transform="matrix(1,0,0,1,772,748.68359375) translate(0 22.9658203125)"/><use xlink:href="#M" transform="matrix(1,0,0,1,772,748.68359375) translate(17.0068359375 22.9658203125)"/><path d="M821.78 603.5v41.75h-57.24V687" stroke="#000" stroke-width="2" fill="none"/><path d="M822.78 603.53h-2v-1.03h2zM765.54 688h-2v-1.03h2z" stroke="#000" stroke-width=".05"/><g><use xlink:href="#N" transform="matrix(1,0,0,1,786.777725393521,612.847994260987) translate(0 14.4)"/></g><g><use xlink:href="#N" transform="matrix(1,0,0,1,772.5362454508488,662.2088368133781) translate(0 14.4)"/></g><g><use xlink:href="#ag" transform="matrix(1,0,0,1,829.777725393521,624.5333333333334) translate(0 14.4)"/><use xlink:href="#ah" transform="matrix(1,0,0,1,829.777725393521,624.5333333333334) translate(63 14.4)"/><use xlink:href="#ai" transform="matrix(1,0,0,1,829.777725393521,624.5333333333334) translate(123 14.4)"/></g><path d="M780 33h201.82v136H780z" stroke="#2ba9e0" stroke-width="2" fill="#ccc"/><path d="M780 66.84h201.82M780 117.96h201.82" stroke="#2ba9e0" stroke-width="2" fill="none"/><g><use xlink:href="#aj" transform="matrix(1,0,0,1,788,41) translate(44.02294921875 13.9658203125)"/></g><g><use xlink:href="#f" transform="matrix(1,0,0,1,792,74.841796875) translate(0 22.9658203125)"/><use xlink:href="#M" transform="matrix(1,0,0,1,792,74.841796875) translate(17.0068359375 22.9658203125)"/></g><path d="M787.43 317.5V300h93.48V171" stroke="#000" stroke-width="2" fill="none"/><path d="M788.43 318.5h-2v-1.02h2zM881.9 171.03h-2V170h2z" stroke="#000" stroke-width=".05"/><g><use xlink:href="#N" transform="matrix(1,0,0,1,840.216695735973,304) translate(0 14.4)"/></g><g><use xlink:href="#ak" transform="matrix(1,0,0,1,842.9090909090909,179.75456046061333) translate(0 14.4)"/></g><g><use xlink:href="#al" transform="matrix(1,0,0,1,783.8810539731877,274.4) translate(0 14.4)"/></g><path d="M1220 295.18h201.82v136H1220z" stroke="#2ba9e0" stroke-width="2" fill="#ccc"/><path d="M1220 329.02h201.82M1220 380.14h201.82" stroke="#2ba9e0" stroke-width="2" fill="none"/><g><use xlink:href="#am" transform="matrix(1,0,0,1,1228,303.18075217479145) translate(27.76318359375 13.9658203125)"/><use xlink:href="#an" transform="matrix(1,0,0,1,1228,303.18075217479145) translate(105.03662109375 13.9658203125)"/></g><g><use xlink:href="#f" transform="matrix(1,0,0,1,1232,337.02254904979145) translate(0 22.9658203125)"/><use xlink:href="#ao" transform="matrix(1,0,0,1,1232,337.02254904979145) translate(17.0068359375 22.9658203125)"/></g><path d="M842 395.85h376" stroke="#000" stroke-width="2" fill="none"/><path d="M842.03 396.85H841v-2h1.03zM1219 396.85h-1.03v-2h1.03z" stroke="#000" stroke-width=".05"/><g><use xlink:href="#ap" transform="matrix(1,0,0,1,963.1000002370494,399.8525981372875) translate(0 14.4)"/><use xlink:href="#aq" transform="matrix(1,0,0,1,963.1000002370494,399.8525981372875) translate(67.95 14.4)"/></g><g><use xlink:href="#N" transform="matrix(1,0,0,1,860.9738830070382,399.8525981372875) translate(0 14.4)"/></g><g><use xlink:href="#N" transform="matrix(1,0,0,1,1186.801369894228,370.25259813728746) translate(0 14.4)"/></g><path d="M1220 620h201.82v154H1220z" stroke="#2ba9e0" stroke-width="2" fill="#ccc"/><path d="M1220 653.84h201.82M1220 722.8h201.82" stroke="#2ba9e0" stroke-width="2" fill="none"/><g><use xlink:href="#ar" transform="matrix(1,0,0,1,1228,628) translate(24.65185546875 13.9658203125)"/><use xlink:href="#as" transform="matrix(1,0,0,1,1228,628) translate(90.83349609375 13.9658203125)"/></g><g><use xlink:href="#f" transform="matrix(1,0,0,1,1232,661.841796875) translate(0 22.544921875)"/><use xlink:href="#at" transform="matrix(1,0,0,1,1232,661.841796875) translate(17.0068359375 22.544921875)"/><use xlink:href="#f" transform="matrix(1,0,0,1,1232,661.841796875) translate(0 40.38671875)"/><use xlink:href="#au" transform="matrix(1,0,0,1,1232,661.841796875) translate(17.0068359375 40.38671875)"/><use xlink:href="#av" transform="matrix(1,0,0,1,1232,661.841796875) translate(76.9306640625 40.38671875)"/><use xlink:href="#aw" transform="matrix(1,0,0,1,1232,661.841796875) translate(92.109375 40.38671875)"/></g><path d="M842 543.42h208V697h168" stroke="#000" stroke-width="2" fill="none"/><path d="M842.03 544.42H841v-2h1.03zM1219 698h-1.03v-2h1.03z" stroke="#000" stroke-width=".05"/><g><use xlink:href="#N" transform="matrix(1,0,0,1,863.1714803361815,547.4167708651873) translate(0 14.4)"/></g><g><use xlink:href="#O" transform="matrix(1,0,0,1,1176.7028826787982,671.4) translate(0 14.4)"/></g><g><use xlink:href="#ax" transform="matrix(1,0,0,1,935.0991175059121,518.6008357367657) translate(0 14.4)"/><use xlink:href="#ay" transform="matrix(1,0,0,1,935.0991175059121,518.6008357367657) translate(92 14.4)"/><use xlink:href="#az" transform="matrix(1,0,0,1,935.0991175059121,518.6008357367657) translate(146.95 14.4)"/><use xlink:href="#aA" transform="matrix(1,0,0,1,935.0991175059121,518.6008357367657) translate(199.95 14.4)"/></g><path d="M1340 33h201.82v136H1340z" stroke="#2ba9e0" stroke-width="2" fill="#ccc"/><path d="M1340 66.84h201.82M1340 117.96h201.82" stroke="#2ba9e0" stroke-width="2" fill="none"/><g><use xlink:href="#aB" transform="matrix(1,0,0,1,1348,41) translate(70.9833984375 13.9658203125)"/></g><g><use xlink:href="#aC" transform="matrix(1,0,0,1,1352,74.841796875) translate(0 22.9658203125)"/><use xlink:href="#aD" transform="matrix(1,0,0,1,1352,74.841796875) translate(17.0068359375 22.9658203125)"/></g><path d="M1423.82 363.18h17.1V171" stroke="#000" stroke-width="2" fill="none"/><path d="M1423.84 364.18h-1.02v-2h1.02zM1441.9 171.03h-2V170h2z" stroke="#000" stroke-width=".05"/><g><use xlink:href="#N" transform="matrix(1,0,0,1,1435.1998726849854,364.95934275147255) translate(0 14.4)"/></g><g><use xlink:href="#O" transform="matrix(1,0,0,1,1402.909090909091,177.37650746220928) translate(0 14.4)"/></g><g><use xlink:href="#aE" transform="matrix(1,0,0,1,1391.9590909090912,232.53333333333336) translate(0 14.4)"/></g><path d="M1421.82 818h201.82v161h-201.82z" stroke="#2ba9e0" stroke-width="2" fill="#fff"/><path d="M1421.82 877.2h201.82m-201.82 51.12h201.82" stroke="#2ba9e0" stroke-width="2" fill="none"/><g><use xlink:href="#aF" transform="matrix(1,0,0,1,1429.8181818181818,826) translate(33.574999999999996 14.799999999999999)"/><use xlink:href="#aG" transform="matrix(1,0,0,1,1429.8181818181818,826) translate(131.475 14.799999999999999)"/><use xlink:href="#aH" transform="matrix(1,0,0,1,1429.8181818181818,826) translate(1.7249999999999943 36.4)"/><use xlink:href="#aI" transform="matrix(1,0,0,1,1429.8181818181818,826) translate(93.575 36.4)"/></g><path d="M1060 830.5h201.82v136H1060z" stroke="#2ba9e0" stroke-width="2" fill="#ccc"/><path d="M1060 864.34h201.82M1060 915.46h201.82" stroke="#2ba9e0" stroke-width="2" fill="none"/><g><use xlink:href="#aJ" transform="matrix(1,0,0,1,1068,838.5) translate(39.7998046875 13.9658203125)"/><use xlink:href="#aK" transform="matrix(1,0,0,1,1068,838.5) translate(87.0849609375 13.9658203125)"/></g><g><use xlink:href="#aC" transform="matrix(1,0,0,1,1072,872.341796875) translate(0 22.9658203125)"/><use xlink:href="#aD" transform="matrix(1,0,0,1,1072,872.341796875) translate(17.0068359375 22.9658203125)"/></g><path d="M1263.82 898.5h156" stroke="#000" stroke-width="2" fill="none"/><path d="M1263.84 899.5h-1.02v-2h1.02zM1420.82 899.5h-1.03v-2h1.02z" stroke="#000" stroke-width=".05"/><g><use xlink:href="#aL" transform="matrix(1,0,0,1,1267.6666666666667,902.5000000000001) translate(0 14.4)"/></g><g><use xlink:href="#aM" transform="matrix(1,0,0,1,1387.8333333333333,872.9000000000001) translate(0 14.4)"/></g><g><use xlink:href="#aN" transform="matrix(1,0,0,1,1283.0455978342782,851.3000000000001) translate(0 14.4)"/><use xlink:href="#aO" transform="matrix(1,0,0,1,1283.0455978342782,851.3000000000001) translate(0 36)"/></g><path d="M1523.73 816h-2V685.47h2zm-81.82-527h81.83v374.87h-2V291h-81.82V171h2z" stroke="#000" stroke-width=".05"/><path d="M1441.9 171.03h-2V170h2z"/><path d="M1441.93 171.05h-2.05v-1.08h2.05zm-2-1.03v.98h1.95v-.97z" stroke="#000" stroke-width=".05"/><path d="M1523.73 817h-2v-1.03h2z"/><path d="M1523.75 817.02h-2.05v-1.07h2.05zm-2-1.02v.98h1.95V816z" stroke="#000" stroke-width=".05"/><g><use xlink:href="#aL" transform="matrix(1,0,0,1,1455.5288275441271,264.4) translate(0 14.4)"/></g><g><use xlink:href="#aM" transform="matrix(1,0,0,1,1530.7272727272725,787.8666666666666) translate(0 14.4)"/></g><g><use xlink:href="#aP" transform="matrix(1,0,0,1,1451.2522727272728,663.8666666666667) translate(0 14.4)"/><use xlink:href="#aQ" transform="matrix(1,0,0,1,1451.2522727272728,663.8666666666667) translate(102 14.4)"/></g><path d="M1031 789h450v27h-2v-25h-450V590.33H842v-2h189z" stroke="#000" stroke-width=".05"/><path d="M842.03 590.33H841v-2h1.03z"/><path d="M842.05 590.36h-1.07v-2.05h1.07zm-1.02-2v1.95h.97v-1.94z" stroke="#000" stroke-width=".05"/><path d="M1481 817h-2v-1.03h2z"/><path d="M1481.03 817.02h-2.06v-1.07h2.06zm-2-1.02v.98h1.94V816z" stroke="#000" stroke-width=".05"/><g><use xlink:href="#aM" transform="matrix(1,0,0,1,862.5,593.3333333333335) translate(0 14.4)"/></g><g><use xlink:href="#aM" transform="matrix(1,0,0,1,1437.6836622811788,794.0000000000001) translate(0 14.4)"/></g><g><use xlink:href="#aR" transform="matrix(1,0,0,1,1038,731.9516312693731) translate(0 14.4)"/><use xlink:href="#aS" transform="matrix(1,0,0,1,1038,731.9516312693731) translate(92 14.4)"/><use xlink:href="#aT" transform="matrix(1,0,0,1,1038,731.9516312693731) translate(0 36)"/><use xlink:href="#aU" transform="matrix(1,0,0,1,1038,731.9516312693731) translate(84.95 36)"/></g><defs><path fill="#3d4752" d="M205-1489h426c365 0 548 153 548 458S998-573 635-573H478V0H205v-1489zm273 219v478h161c177 0 265-80 265-239s-88-239-265-239H478" id="aV"/><path fill="#3d4752" d="M431-770V0H168v-1094h263v110c156-133 232-175 396-74l-84 220c-129-52-218-25-312 68" id="aW"/><path fill="#3d4752" d="M711-687c-7-170-35-229-188-230-74 0-147 18-220 53l-88-179c111-51 229-76 353-76 303 0 405 148 405 459V0H717v-81C651-13 566 21 461 21 236 21 81-120 81-346c0-158 85-260 254-311 103-31 245-40 376-30zM326-329c0 101 84 155 189 155 91 0 157-36 196-109v-226c-23-4-49-6-78-6-205 0-307 62-307 186" id="aX"/><path fill="#3d4752" d="M94-547c0-294 207-569 494-569 131 0 260 50 386 150L872-811c-96-74-188-111-277-112-163-2-225 186-225 376 0 251 82 377 246 377 81 0 168-36 260-107l103 137C862-32 733 22 593 22 292 22 94-208 94-547" id="aY"/><path fill="#3d4752" d="M578-1116c196 0 337 93 423 279 40 87 60 183 60 290 0 225-77 390-230 494-74 50-158 75-253 75-197 0-338-93-424-279-40-87-60-183-60-290 0-226 77-391 231-495 73-49 158-74 253-74zm0 194c-139 0-208 125-208 375s69 375 208 375c138 0 207-125 207-375s-69-375-207-375" id="aZ"/><path fill="#3d4752" d="M452 0L25-1094h272l252 709 263-709h249L634 0H452" id="ba"/><path fill="#3d4752" d="M783-1116c173 0 283 89 283 264V0H803v-754c0-92-46-138-139-138-73 0-151 30-233 91V0H168v-1094h263v93c117-77 234-115 352-115" id="bb"/><path fill="#3d4752" d="M431-1094V0H168v-1094h263zm-31-185H207l144-315h292" id="bc"/><g id="a"><use transform="matrix(0.0087890625,0,0,0.0087890625,0,0)" xlink:href="#aV"/><use transform="matrix(0.0087890625,0,0,0.0087890625,11.1357421875,0)" xlink:href="#aW"/><use transform="matrix(0.0087890625,0,0,0.0087890625,17.5693359375,0)" xlink:href="#aX"/><use transform="matrix(0.0087890625,0,0,0.0087890625,27.474609375,0)" xlink:href="#aY"/><use transform="matrix(0.0087890625,0,0,0.0087890625,36.0791015625,0)" xlink:href="#aZ"/><use transform="matrix(0.0087890625,0,0,0.0087890625,46.23046875,0)" xlink:href="#ba"/><use transform="matrix(0.0087890625,0,0,0.0087890625,55.775390625,0)" xlink:href="#bb"/><use transform="matrix(0.0087890625,0,0,0.0087890625,66.498046875,0)" xlink:href="#bc"/></g><path fill="#3d4752" d="M1420-1116c172-1 282 89 282 264V0h-263v-754c0-92-46-138-138-138-75 0-153 30-235 90V0H803v-754c0-92-46-138-138-138-71 0-149 30-234 90V0H168v-1094h263v93c117-77 234-115 353-115 121 0 206 45 254 134 124-89 251-134 382-134" id="bd"/><path fill="#3d4752" d="M925-326c0 213-197 348-437 348C341 22 194-16 47-93l93-183c121 69 236 103 345 103s164-42 164-127c0-41-24-75-72-100-19-10-61-25-126-44-165-49-270-109-315-179-27-41-40-94-40-158 0-210 193-335 432-335 111 0 229 34 354 103l-83 176c-101-56-191-84-271-84-107 0-161 40-161 121 0 37 23 66 70 89 16 12 285 99 327 123 105 60 161 144 161 262" id="be"/><path fill="#3d4752" d="M503-384c-2 129 8 204 107 204 41 0 91-13 150-38l66 171C737-1 639 22 533 22c-230-2-293-122-293-358v-559H42v-199h198v-395h263v395h265v199H503v511" id="bf"/><g id="b"><use transform="matrix(0.0087890625,0,0,0.0087890625,0,0)" xlink:href="#bd"/><use transform="matrix(0.0087890625,0,0,0.0087890625,16.3125,0)" xlink:href="#bc"/><use transform="matrix(0.0087890625,0,0,0.0087890625,21.5771484375,0)" xlink:href="#be"/><use transform="matrix(0.0087890625,0,0,0.0087890625,30.4013671875,0)" xlink:href="#bf"/><use transform="matrix(0.0087890625,0,0,0.0087890625,37.5029296875,0)" xlink:href="#aZ"/></g><g id="c"><use transform="matrix(0.0087890625,0,0,0.0087890625,0,0)" xlink:href="#bb"/><use transform="matrix(0.0087890625,0,0,0.0087890625,10.72265625,0)" xlink:href="#aX"/></g><path fill="#3d4752" d="M582-1489l334 833 329-833h295L1695 0h-278l-102-1047-287 738H798l-298-738L397 0H130l154-1489h298" id="bg"/><path fill="#3d4752" d="M478 0H205v-1489h859v219H478v389h485v219H478V0" id="bh"/><g id="d"><use transform="matrix(0.0087890625,0,0,0.0087890625,0,0)" xlink:href="#bg"/><use transform="matrix(0.0087890625,0,0,0.0087890625,16.0400390625,0)" xlink:href="#bh"/><use transform="matrix(0.0087890625,0,0,0.0087890625,25.892578125,0)" xlink:href="#bh"/></g><path fill="#3d4752" d="M718 23c-304 0-533-125-532-410v-1102h272v1066c0 151 87 227 260 227 174 0 261-76 261-227v-1066h272v1102c8 267-231 410-533 410" id="bi"/><path fill="#3d4752" d="M970 0L478-694V0H205v-1489h273v622l490-622h310L717-790 1296 0H970" id="bj"/><g id="e"><use transform="matrix(0.0087890625,0,0,0.0087890625,0,0)" xlink:href="#bi"/><use transform="matrix(0.0087890625,0,0,0.0087890625,12.6298828125,0)" xlink:href="#bj"/></g><path fill="#3d4752" d="M1230-642H783v452H552v-452H106v-221h446v-452h231v452h447v221" id="bk"/><use transform="matrix(0.0087890625,0,0,0.0087890625,0,0)" xlink:href="#bk" id="f"/><path fill="#3d4752" d="M690-1116c279 0 423 232 423 527 0 261-67 439-196 539C782 54 551 41 431-69v481H168v-1506h253v93c71-77 160-115 269-115zM431-810v545c64 56 127 84 189 84 145 0 218-134 218-402 0-214-68-321-203-321-71 0-139 31-204 94" id="bl"/><path fill="#3d4752" d="M546-961c-228 0-273 188-273 415 0 228 51 427 273 427 137 0 233-80 245-216l182 11C939-114 797 23 552 23 216 23 120-210 86-540c-57-529 575-745 836-364 23 40 28 80 40 125l-182 17c-23-119-91-199-233-199zm108-239H449c-74-102-176-171-233-290 182-11 222 114 336 171 108-57 148-182 324-171-51 119-154 188-222 290" id="bm"/><path fill="#3d4752" d="M94-548c0-302 191-568 483-568 311 0 493 270 482 633H370c7 207 93 311 256 311 93 0 196-46 308-137l103 144C907-40 760 22 595 22 293 22 94-237 94-548zm282-120h403c-18-170-85-255-202-255s-184 85-201 255" id="bn"/><g id="g"><use transform="matrix(0.0087890625,0,0,0.0087890625,0,0)" xlink:href="#bl"/><use transform="matrix(0.0087890625,0,0,0.0087890625,10.6083984375,0)" xlink:href="#aZ"/><use transform="matrix(0.0087890625,0,0,0.0087890625,20.759765625,0)" xlink:href="#bm"/><use transform="matrix(0.0087890625,0,0,0.0087890625,29.759765625,0)" xlink:href="#bn"/><use transform="matrix(0.0087890625,0,0,0.0087890625,39.8935546875,0)" xlink:href="#bf"/></g><path fill="#3d4752" d="M784-1116c178 0 282 88 282 264V0H803v-754c0-92-46-138-138-138-74 0-152 32-234 95V0H168v-1580h263v579c117-77 234-115 353-115" id="bo"/><path fill="#3d4752" d="M94-505c0-321 128-611 419-611 101 0 188 30 263 91v-555h263V-1H787v-91C712-16 620 22 509 22c-171 0-293-85-364-254-34-81-51-172-51-273zm682 228v-551c-64-56-127-84-189-84-145 0-218 134-218 401 0 213 68 320 203 320 69 0 137-29 204-86" id="bp"/><path fill="#3d4752" d="M431-1094V0H168v-1094h263zm0-190H168v-296h263v296" id="bq"/><g id="h"><use transform="matrix(0.0087890625,0,0,0.0087890625,0,0)" xlink:href="#bo"/><use transform="matrix(0.0087890625,0,0,0.0087890625,10.72265625,0)" xlink:href="#aZ"/><use transform="matrix(0.0087890625,0,0,0.0087890625,20.8740234375,0)" xlink:href="#bp"/><use transform="matrix(0.0087890625,0,0,0.0087890625,31.482421875,0)" xlink:href="#bq"/><use transform="matrix(0.0087890625,0,0,0.0087890625,36.7470703125,0)" xlink:href="#bb"/></g><path fill="#3d4752" d="M421-36L25-1094h272l251 717 263-717h249L649 1c-97 251-201 366-459 445L96 279c173-62 281-167 325-315zm228-1243H456l144-315h292" id="br"/><path fill="#3d4752" d="M569-1104c358 0 489 239 478 603H279c0 228 80 381 302 387 148 6 245-68 279-165l159 46C956-74 809 23 581 23 251 23 80-187 86-546c6-347 148-558 484-558zm296 461c34-341-432-438-552-159-17 40-34 97-34 159h586zm-194-557H466c-74-102-176-171-233-290 182-11 222 114 336 171 108-57 148-182 324-171-51 119-154 188-222 290" id="bs"/><g id="i"><use transform="matrix(0.0087890625,0,0,0.0087890625,0,0)" xlink:href="#bf"/><use transform="matrix(0.0087890625,0,0,0.0087890625,7.1015625,0)" xlink:href="#br"/><use transform="matrix(0.0087890625,0,0,0.0087890625,16.6376953125,0)" xlink:href="#bp"/><use transform="matrix(0.0087890625,0,0,0.0087890625,27.24609375,0)" xlink:href="#bb"/><use transform="matrix(0.0087890625,0,0,0.0087890625,37.96875,0)" xlink:href="#bs"/></g><path fill="#3d4752" d="M796 469H312v-2004h484v176H574V294h222v175" id="bt"/><path fill="#3d4752" d="M1233-744c0 399-195 768-565 768-181 0-323-79-425-237-94-145-141-322-141-531 0-297 85-517 254-660 85-72 189-108 312-108 370 0 565 369 565 768zm-565-554c-125 0-209 90-253 271-20 82-30 176-30 283 0 225 42 385 125 481 43 49 95 74 158 74 125 0 209-91 252-272 20-83 30-178 30-283 0-227-41-387-123-481-42-49-95-73-159-73" id="bu"/><path fill="#3d4752" d="M452 0H163v-278h289V0" id="bv"/><path fill="#3d4752" d="M625-1489V0H364v-1169c-97 70-205 113-324 128v-235c131-26 248-97 351-213h234" id="bw"/><path fill="#3d4752" d="M131 469V294h222v-1653H131v-176h483V469H131" id="bx"/><g id="j"><use transform="matrix(0.0087890625,0,0,0.0087890625,0,0)" xlink:href="#bt"/><use transform="matrix(0.0087890625,0,0,0.0087890625,8.1474609375,0)" xlink:href="#bu"/><use transform="matrix(0.0087890625,0,0,0.0087890625,19.880859375,0)" xlink:href="#bv"/><use transform="matrix(0.0087890625,0,0,0.0087890625,25.2861328125,0)" xlink:href="#bv"/><use transform="matrix(0.0087890625,0,0,0.0087890625,30.69140625,0)" xlink:href="#bw"/><use transform="matrix(0.0087890625,0,0,0.0087890625,38.3818359375,0)" xlink:href="#bx"/></g><use transform="matrix(0.0087890625,0,0,0.0087890625,0,0)" xlink:href="#bk" id="k"/><path fill="#3d4752" d="M1152 0H835L431-519V0H168v-1580h263v869l332-383h308L654-620" id="by"/><path fill="#3d4752" d="M421-36L25-1094h272l251 717 263-717h249L649 1c-97 251-201 366-459 445L96 279c173-62 281-167 325-315" id="bz"/><g id="l"><use transform="matrix(0.0087890625,0,0,0.0087890625,0,0)" xlink:href="#bl"/><use transform="matrix(0.0087890625,0,0,0.0087890625,10.6083984375,0)" xlink:href="#aZ"/><use transform="matrix(0.0087890625,0,0,0.0087890625,20.759765625,0)" xlink:href="#by"/><use transform="matrix(0.0087890625,0,0,0.0087890625,30.7001953125,0)" xlink:href="#bz"/><use transform="matrix(0.0087890625,0,0,0.0087890625,40.236328125,0)" xlink:href="#bb"/><use transform="matrix(0.0087890625,0,0,0.0087890625,50.958984375,0)" xlink:href="#bz"/></g><g id="m"><use transform="matrix(0.0087890625,0,0,0.0087890625,0,0)" xlink:href="#bl"/><use transform="matrix(0.0087890625,0,0,0.0087890625,10.6083984375,0)" xlink:href="#aW"/><use transform="matrix(0.0087890625,0,0,0.0087890625,17.4375,0)" xlink:href="#aZ"/></g><path fill="#3d4752" d="M711-687c-7-170-35-229-188-230-74 0-147 18-220 53l-88-179c111-51 229-76 353-76 303 0 405 148 405 459V0H717v-81C651-13 566 21 461 21 236 21 81-120 81-346c0-158 85-260 254-311 103-31 245-40 376-30zM326-329c0 101 84 155 189 155 91 0 157-36 196-109v-226c-23-4-49-6-78-6-205 0-307 62-307 186zm359-950H492l144-315h292" id="bA"/><g id="n"><use transform="matrix(0.0087890625,0,0,0.0087890625,0,0)" xlink:href="#bl"/><use transform="matrix(0.0087890625,0,0,0.0087890625,10.6083984375,0)" xlink:href="#aZ"/><use transform="matrix(0.0087890625,0,0,0.0087890625,20.759765625,0)" xlink:href="#bp"/><use transform="matrix(0.0087890625,0,0,0.0087890625,31.3681640625,0)" xlink:href="#bA"/><use transform="matrix(0.0087890625,0,0,0.0087890625,41.2734375,0)" xlink:href="#ba"/><use transform="matrix(0.0087890625,0,0,0.0087890625,50.4580078125,0)" xlink:href="#bA"/><use transform="matrix(0.0087890625,0,0,0.0087890625,60.36328125,0)" xlink:href="#bb"/><use transform="matrix(0.0087890625,0,0,0.0087890625,71.0859375,0)" xlink:href="#bc"/></g><path fill="#3d4752" d="M649-927C205-1018 347-409 325 0H143l-6-1081h171c6 68-6 165 11 222 34-154 131-279 330-233v165zm-154-273H290c-74-102-176-171-233-290 182-11 222 114 336 171 108-57 148-182 324-171-51 119-154 188-222 290" id="bB"/><path fill="#3d4752" d="M446 22C216 22 155-90 155-336v-1244h263v1196c0 75 6 126 18 153 27 62 110 61 177 31l67 172C603 5 525 22 446 22" id="bC"/><path fill="#3d4752" d="M768-814c-17-193-489-216-495 0 85 302 654 68 677 512S97 119 57-256l159-28c23 205 552 256 558 0-57-319-643-85-671-512-23-324 466-358 694-239 68 40 119 108 137 199zm-159-386H404c-74-102-176-171-233-290 182-11 222 114 336 171 108-57 148-182 324-171-51 119-154 188-222 290" id="bD"/><g id="o"><use transform="matrix(0.0087890625,0,0,0.0087890625,0,0)" xlink:href="#bl"/><use transform="matrix(0.0087890625,0,0,0.0087890625,10.6083984375,0)" xlink:href="#bB"/><use transform="matrix(0.0087890625,0,0,0.0087890625,16.55859375,0)" xlink:href="#bq"/><use transform="matrix(0.0087890625,0,0,0.0087890625,21.8232421875,0)" xlink:href="#bo"/><use transform="matrix(0.0087890625,0,0,0.0087890625,32.5458984375,0)" xlink:href="#bC"/><use transform="matrix(0.0087890625,0,0,0.0087890625,38.2412109375,0)" xlink:href="#bA"/><use transform="matrix(0.0087890625,0,0,0.0087890625,48.146484375,0)" xlink:href="#bD"/><use transform="matrix(0.0087890625,0,0,0.0087890625,57.146484375,0)" xlink:href="#bn"/><use transform="matrix(0.0087890625,0,0,0.0087890625,67.2802734375,0)" xlink:href="#by"/></g><g id="p"><use transform="matrix(0.0087890625,0,0,0.0087890625,0,0)" xlink:href="#bt"/><use transform="matrix(0.0087890625,0,0,0.0087890625,8.1474609375,0)" xlink:href="#bu"/><use transform="matrix(0.0087890625,0,0,0.0087890625,19.880859375,0)" xlink:href="#bv"/><use transform="matrix(0.0087890625,0,0,0.0087890625,25.2861328125,0)" xlink:href="#bv"/><use transform="matrix(0.0087890625,0,0,0.0087890625,30.69140625,0)" xlink:href="#bw"/><use transform="matrix(0.0087890625,0,0,0.0087890625,38.3818359375,0)" xlink:href="#bx"/></g><use transform="matrix(0.0087890625,0,0,0.0087890625,0,0)" xlink:href="#ba" id="q"/><path fill="#3d4752" d="M1236-1489V0H963v-662H478V0H205v-1489h273v608h485v-608h273" id="bE"/><path fill="#3d4752" d="M45-1270v-219h1063v219H713V0H440v-1270H45" id="bF"/><path fill="#3d4752" d="M1019-219V0H205v-1489h273v1270h541" id="bG"/><g id="r"><use transform="matrix(0.0087890625,0,0,0.0087890625,0,0)" xlink:href="#bE"/><use transform="matrix(0.0087890625,0,0,0.0087890625,12.6650390625,0)" xlink:href="#bF"/><use transform="matrix(0.0087890625,0,0,0.0087890625,22.798828125,0)" xlink:href="#bg"/><use transform="matrix(0.0087890625,0,0,0.0087890625,38.8388671875,0)" xlink:href="#bG"/></g><path fill="#3d4752" d="M437 22c-177 0-283-91-283-265v-851h263v755c0 91 46 137 139 137 75 0 152-32 233-95v-797h263V0H789v-93C670-16 552 22 437 22zm263-1301H507l144-315h292" id="bH"/><g id="s"><use transform="matrix(0.0087890625,0,0,0.0087890625,0,0)" xlink:href="#bH"/><use transform="matrix(0.0087890625,0,0,0.0087890625,10.72265625,0)" xlink:href="#ba"/><use transform="matrix(0.0087890625,0,0,0.0087890625,20.267578125,0)" xlink:href="#aZ"/><use transform="matrix(0.0087890625,0,0,0.0087890625,30.4189453125,0)" xlink:href="#bp"/></g><path fill="#3d4752" d="M913-199V0H57v-145l540-750H116v-199h789v167L377-199h536" id="bI"/><path fill="#3d4752" d="M437 22c-177 0-283-91-283-265v-851h263v755c0 91 46 137 139 137 75 0 152-32 233-95v-797h263V0H789v-93C670-16 552 22 437 22" id="bJ"/><g id="t"><use transform="matrix(0.0087890625,0,0,0.0087890625,0,0)" xlink:href="#bq"/><use transform="matrix(0.0087890625,0,0,0.0087890625,5.2646484375,0)" xlink:href="#bb"/><use transform="matrix(0.0087890625,0,0,0.0087890625,15.9873046875,0)" xlink:href="#bI"/><use transform="matrix(0.0087890625,0,0,0.0087890625,24.591796875,0)" xlink:href="#bn"/><use transform="matrix(0.0087890625,0,0,0.0087890625,34.7255859375,0)" xlink:href="#aW"/><use transform="matrix(0.0087890625,0,0,0.0087890625,41.1591796875,0)" xlink:href="#bA"/><use transform="matrix(0.0087890625,0,0,0.0087890625,51.064453125,0)" xlink:href="#bf"/><use transform="matrix(0.0087890625,0,0,0.0087890625,58.166015625,0)" xlink:href="#bJ"/></g><path fill="#3d4752" d="M168-1094h263V8c0 183-50 314-155 383-129 85-293 60-435-19l64-181c165 82 263 14 263-222v-1063zm263-190H168v-296h263v296" id="bK"/><g id="u"><use transform="matrix(0.0087890625,0,0,0.0087890625,0,0)" xlink:href="#bI"/><use transform="matrix(0.0087890625,0,0,0.0087890625,8.6044921875,0)" xlink:href="#ba"/><use transform="matrix(0.0087890625,0,0,0.0087890625,18.1494140625,0)" xlink:href="#bn"/><use transform="matrix(0.0087890625,0,0,0.0087890625,28.283203125,0)" xlink:href="#bB"/><use transform="matrix(0.0087890625,0,0,0.0087890625,34.2333984375,0)" xlink:href="#bn"/><use transform="matrix(0.0087890625,0,0,0.0087890625,44.3671875,0)" xlink:href="#bK"/><use transform="matrix(0.0087890625,0,0,0.0087890625,49.6318359375,0)" xlink:href="#bb"/><use transform="matrix(0.0087890625,0,0,0.0087890625,60.3544921875,0)" xlink:href="#bs"/><use transform="matrix(0.0087890625,0,0,0.0087890625,72.087890625,0)" xlink:href="#bb"/><use transform="matrix(0.0087890625,0,0,0.0087890625,82.810546875,0)" xlink:href="#aZ"/></g><g id="v"><use transform="matrix(0.0087890625,0,0,0.0087890625,0,0)" xlink:href="#be"/><use transform="matrix(0.0087890625,0,0,0.0087890625,8.82421875,0)" xlink:href="#bd"/><use transform="matrix(0.0087890625,0,0,0.0087890625,25.13671875,0)" xlink:href="#bC"/><use transform="matrix(0.0087890625,0,0,0.0087890625,30.83203125,0)" xlink:href="#aZ"/><use transform="matrix(0.0087890625,0,0,0.0087890625,40.9833984375,0)" xlink:href="#bJ"/><use transform="matrix(0.0087890625,0,0,0.0087890625,51.7060546875,0)" xlink:href="#ba"/><use transform="matrix(0.0087890625,0,0,0.0087890625,60.890625,0)" xlink:href="#aX"/></g><path fill="#3d4752" d="M1113-589c0 325-126 613-421 611-108 0-198-32-271-96V0H168v-1580h263v560c76-64 164-96 265-96 269 0 417 244 417 527zM431-818v553c64 56 127 84 189 84 145 0 218-134 218-402 0-214-68-321-203-321-67 0-135 29-204 86" id="bL"/><g id="w"><use transform="matrix(0.0087890625,0,0,0.0087890625,0,0)" xlink:href="#bp"/><use transform="matrix(0.0087890625,0,0,0.0087890625,10.6083984375,0)" xlink:href="#aZ"/><use transform="matrix(0.0087890625,0,0,0.0087890625,20.759765625,0)" xlink:href="#bL"/><use transform="matrix(0.0087890625,0,0,0.0087890625,31.3681640625,0)" xlink:href="#bJ"/></g><g id="x"><use transform="matrix(0.0087890625,0,0,0.0087890625,0,0)" xlink:href="#bb"/><use transform="matrix(0.0087890625,0,0,0.0087890625,10.72265625,0)" xlink:href="#bn"/><use transform="matrix(0.0087890625,0,0,0.0087890625,20.8564453125,0)" xlink:href="#bJ"/><use transform="matrix(0.0087890625,0,0,0.0087890625,31.5791015625,0)" xlink:href="#aW"/><use transform="matrix(0.0087890625,0,0,0.0087890625,38.7685546875,0)" xlink:href="#bm"/><use transform="matrix(0.0087890625,0,0,0.0087890625,47.7685546875,0)" xlink:href="#bq"/><use transform="matrix(0.0087890625,0,0,0.0087890625,53.033203125,0)" xlink:href="#bf"/><use transform="matrix(0.0087890625,0,0,0.0087890625,60.134765625,0)" xlink:href="#aZ"/><use transform="matrix(0.0087890625,0,0,0.0087890625,70.2861328125,0)" xlink:href="#bJ"/></g><g id="y"><use transform="matrix(0.0087890625,0,0,0.0087890625,0,0)" xlink:href="#bt"/><use transform="matrix(0.0087890625,0,0,0.0087890625,8.1474609375,0)" xlink:href="#bu"/><use transform="matrix(0.0087890625,0,0,0.0087890625,19.880859375,0)" xlink:href="#bv"/><use transform="matrix(0.0087890625,0,0,0.0087890625,25.2861328125,0)" xlink:href="#bv"/><use transform="matrix(0.0087890625,0,0,0.0087890625,30.69140625,0)" xlink:href="#bw"/><use transform="matrix(0.0087890625,0,0,0.0087890625,38.3818359375,0)" xlink:href="#bx"/></g><g id="z"><use transform="matrix(0.0087890625,0,0,0.0087890625,0,0)" xlink:href="#bd"/><use transform="matrix(0.0087890625,0,0,0.0087890625,16.3125,0)" xlink:href="#bc"/><use transform="matrix(0.0087890625,0,0,0.0087890625,21.5771484375,0)" xlink:href="#be"/><use transform="matrix(0.0087890625,0,0,0.0087890625,30.4013671875,0)" xlink:href="#bf"/><use transform="matrix(0.0087890625,0,0,0.0087890625,37.5029296875,0)" xlink:href="#aZ"/></g><g id="A"><use transform="matrix(0.0087890625,0,0,0.0087890625,0,0)" xlink:href="#bq"/><use transform="matrix(0.0087890625,0,0,0.0087890625,5.2646484375,0)" xlink:href="#aW"/><use transform="matrix(0.0087890625,0,0,0.0087890625,12.4541015625,0)" xlink:href="#bq"/></g><g id="B"><use transform="matrix(0.0087890625,0,0,0.0087890625,0,0)" xlink:href="#bb"/><use transform="matrix(0.0087890625,0,0,0.0087890625,10.72265625,0)" xlink:href="#bA"/><use transform="matrix(0.0087890625,0,0,0.0087890625,20.6279296875,0)" xlink:href="#bI"/><use transform="matrix(0.0087890625,0,0,0.0087890625,29.232421875,0)" xlink:href="#bn"/><use transform="matrix(0.0087890625,0,0,0.0087890625,39.3662109375,0)" xlink:href="#ba"/></g><g id="C"><use transform="matrix(0.0087890625,0,0,0.0087890625,0,0)" xlink:href="#bl"/><use transform="matrix(0.0087890625,0,0,0.0087890625,10.6083984375,0)" xlink:href="#aZ"/><use transform="matrix(0.0087890625,0,0,0.0087890625,20.759765625,0)" xlink:href="#bl"/><use transform="matrix(0.0087890625,0,0,0.0087890625,31.3681640625,0)" xlink:href="#bq"/><use transform="matrix(0.0087890625,0,0,0.0087890625,36.6328125,0)" xlink:href="#be"/></g><g id="D"><use transform="matrix(0.0087890625,0,0,0.0087890625,0,0)" xlink:href="#ba"/><use transform="matrix(0.0087890625,0,0,0.0087890625,9.544921875,0)" xlink:href="#bz"/><use transform="matrix(0.0087890625,0,0,0.0087890625,19.0810546875,0)" xlink:href="#bf"/><use transform="matrix(0.0087890625,0,0,0.0087890625,26.1826171875,0)" xlink:href="#ba"/><use transform="matrix(0.0087890625,0,0,0.0087890625,35.7275390625,0)" xlink:href="#aZ"/><use transform="matrix(0.0087890625,0,0,0.0087890625,45.87890625,0)" xlink:href="#bB"/><use transform="matrix(0.0087890625,0,0,0.0087890625,51.8291015625,0)" xlink:href="#bn"/><use transform="matrix(0.0087890625,0,0,0.0087890625,61.962890625,0)" xlink:href="#bb"/><use transform="matrix(0.0087890625,0,0,0.0087890625,72.685546875,0)" xlink:href="#aZ"/></g><g id="E"><use transform="matrix(0.0087890625,0,0,0.0087890625,0,0)" xlink:href="#bl"/><use transform="matrix(0.0087890625,0,0,0.0087890625,10.6083984375,0)" xlink:href="#bB"/><use transform="matrix(0.0087890625,0,0,0.0087890625,16.55859375,0)" xlink:href="#bc"/><use transform="matrix(0.0087890625,0,0,0.0087890625,21.8232421875,0)" xlink:href="#bC"/><use transform="matrix(0.0087890625,0,0,0.0087890625,27.5185546875,0)" xlink:href="#aZ"/><use transform="matrix(0.0087890625,0,0,0.0087890625,37.669921875,0)" xlink:href="#bo"/><use transform="matrix(0.0087890625,0,0,0.0087890625,48.392578125,0)" xlink:href="#aX"/></g><g id="F"><use transform="matrix(0.0087890625,0,0,0.0087890625,0,0)" xlink:href="#bp"/><use transform="matrix(0.0087890625,0,0,0.0087890625,10.6083984375,0)" xlink:href="#aZ"/><use transform="matrix(0.0087890625,0,0,0.0087890625,20.759765625,0)" xlink:href="#bL"/><use transform="matrix(0.0087890625,0,0,0.0087890625,31.3681640625,0)" xlink:href="#aX"/></g><g id="G"><use transform="matrix(0.0087890625,0,0,0.0087890625,0,0)" xlink:href="#bf"/><use transform="matrix(0.0087890625,0,0,0.0087890625,7.1015625,0)" xlink:href="#aW"/><use transform="matrix(0.0087890625,0,0,0.0087890625,14.6513671875,0)" xlink:href="#ba"/><use transform="matrix(0.0087890625,0,0,0.0087890625,23.8359375,0)" xlink:href="#bA"/><use transform="matrix(0.0087890625,0,0,0.0087890625,33.7412109375,0)" xlink:href="#bb"/><use transform="matrix(0.0087890625,0,0,0.0087890625,44.4638671875,0)" xlink:href="#bc"/></g><g id="H"><use transform="matrix(0.0087890625,0,0,0.0087890625,0,0)" xlink:href="#bb"/><use transform="matrix(0.0087890625,0,0,0.0087890625,10.72265625,0)" xlink:href="#bA"/><use transform="matrix(0.0087890625,0,0,0.0087890625,20.6279296875,0)" xlink:href="#be"/><use transform="matrix(0.0087890625,0,0,0.0087890625,29.4521484375,0)" xlink:href="#bf"/><use transform="matrix(0.0087890625,0,0,0.0087890625,36.5537109375,0)" xlink:href="#bJ"/><use transform="matrix(0.0087890625,0,0,0.0087890625,47.2763671875,0)" xlink:href="#bl"/></g><g id="I"><use transform="matrix(0.0087890625,0,0,0.0087890625,0,0)" xlink:href="#bq"/><use transform="matrix(0.0087890625,0,0,0.0087890625,5.2646484375,0)" xlink:href="#bo"/><use transform="matrix(0.0087890625,0,0,0.0087890625,15.9873046875,0)" xlink:href="#bb"/><use transform="matrix(0.0087890625,0,0,0.0087890625,26.7099609375,0)" xlink:href="#bn"/><use transform="matrix(0.0087890625,0,0,0.0087890625,36.84375,0)" xlink:href="#bp"/></g><g id="J"><use transform="matrix(0.0087890625,0,0,0.0087890625,0,0)" xlink:href="#bv"/><use transform="matrix(0.0087890625,0,0,0.0087890625,5.4052734375,0)" xlink:href="#bv"/><use transform="matrix(0.0087890625,0,0,0.0087890625,10.810546875,0)" xlink:href="#bv"/></g><g id="K"><use transform="matrix(0.0087890625,0,0,0.0087890625,0,0)" xlink:href="#bg"/><use transform="matrix(0.0087890625,0,0,0.0087890625,16.0400390625,0)" xlink:href="#bI"/><use transform="matrix(0.0087890625,0,0,0.0087890625,24.64453125,0)" xlink:href="#bp"/><use transform="matrix(0.0087890625,0,0,0.0087890625,35.2529296875,0)" xlink:href="#aZ"/><use transform="matrix(0.0087890625,0,0,0.0087890625,45.404296875,0)" xlink:href="#ba"/><use transform="matrix(0.0087890625,0,0,0.0087890625,54.5888671875,0)" xlink:href="#bA"/></g><g id="L"><use transform="matrix(0.0087890625,0,0,0.0087890625,0,0)" xlink:href="#bf"/><use transform="matrix(0.0087890625,0,0,0.0087890625,7.1015625,0)" xlink:href="#bB"/><use transform="matrix(0.0087890625,0,0,0.0087890625,13.0517578125,0)" xlink:href="#bc"/><use transform="matrix(0.0087890625,0,0,0.0087890625,18.31640625,0)" xlink:href="#bp"/><use transform="matrix(0.0087890625,0,0,0.0087890625,28.9248046875,0)" xlink:href="#aX"/></g><g id="M"><use transform="matrix(0.0087890625,0,0,0.0087890625,0,0)" xlink:href="#bq"/><use transform="matrix(0.0087890625,0,0,0.0087890625,5.2646484375,0)" xlink:href="#aW"/><use transform="matrix(0.0087890625,0,0,0.0087890625,12.4541015625,0)" xlink:href="#bq"/></g><path d="M101-251c68 0 85 55 85 127S166 4 100 4C33 4 14-52 14-124c0-73 17-127 87-127zm-1 229c47 0 54-49 54-102s-4-102-53-102c-51 0-55 48-55 102 0 53 5 102 54 102" id="bM"/><path d="M33 0v-38h34V0H33" id="bN"/><path d="M80-196l47-18 7 23-49 13 32 44-20 13-27-46-27 45-21-12 33-44-49-13 8-23 47 19-2-53h23" id="bO"/><g id="N"><use transform="matrix(0.05,0,0,0.05,0,0)" xlink:href="#bM"/><use transform="matrix(0.05,0,0,0.05,10,0)" xlink:href="#bN"/><use transform="matrix(0.05,0,0,0.05,15,0)" xlink:href="#bN"/><use transform="matrix(0.05,0,0,0.05,20,0)" xlink:href="#bO"/></g><path d="M27 0v-27h64v-190l-56 39v-29l58-41h29v221h61V0H27" id="bP"/><g id="O"><use transform="matrix(0.05,0,0,0.05,0,0)" xlink:href="#bM"/><use transform="matrix(0.05,0,0,0.05,10,0)" xlink:href="#bN"/><use transform="matrix(0.05,0,0,0.05,15,0)" xlink:href="#bN"/><use transform="matrix(0.05,0,0,0.05,20,0)" xlink:href="#bP"/></g><path d="M210-169c-67 3-38 105-44 169h-31v-121c0-29-5-50-35-48C34-165 62-65 56 0H25l-1-190h30c1 10-1 24 2 32 10-44 99-50 107 0 11-21 27-35 58-36 85-2 47 119 55 194h-31v-121c0-29-5-49-35-48" id="bQ"/><path d="M9 0v-24l116-142H16v-24h144v24L44-24h123V0H9" id="bR"/><path d="M85-194c31 0 48 13 60 33l-1-100h32l1 261h-30c-2-10 0-23-3-31C134-8 116 4 85 4 32 4 16-35 15-94c0-66 23-100 70-100zm9 24c-40 0-46 34-46 75 0 40 6 74 45 74 42 0 51-32 51-76 0-42-9-74-50-73" id="bS"/><path d="M100-194c62-1 85 37 85 99 1 63-27 99-86 99S16-35 15-95c0-66 28-99 85-99zM99-20c44 1 53-31 53-75 0-43-8-75-51-75s-53 32-53 75 10 74 51 75" id="bT"/><path d="M108 0H70L1-190h34L89-25l56-165h34" id="bU"/><path d="M141-36C126-15 110 5 73 4 37 3 15-17 15-53c-1-64 63-63 125-63 3-35-9-54-41-54-24 1-41 7-42 31l-33-3c5-37 33-52 76-52 45 0 72 20 72 64v82c-1 20 7 32 28 27v20c-31 9-61-2-59-35zM48-53c0 20 12 33 32 33 41-3 63-29 60-74-43 2-92-5-92 41zm25-158c8-23 27-35 38-54h36v5l-58 49H73" id="bV"/><g id="P"><use transform="matrix(0.05,0,0,0.05,0,0)" xlink:href="#bQ"/><use transform="matrix(0.05,0,0,0.05,14.950000000000001,0)" xlink:href="#bR"/><use transform="matrix(0.05,0,0,0.05,23.950000000000003,0)" xlink:href="#bS"/><use transform="matrix(0.05,0,0,0.05,33.95,0)" xlink:href="#bT"/><use transform="matrix(0.05,0,0,0.05,43.95,0)" xlink:href="#bU"/><use transform="matrix(0.05,0,0,0.05,52.95,0)" xlink:href="#bV"/></g><path d="M59-47c-2 24 18 29 38 22v24C64 9 27 4 27-40v-127H5v-23h24l9-43h21v43h35v23H59v120" id="bW"/><path d="M114-163C36-179 61-72 57 0H25l-1-190h30c1 12-1 29 2 39 6-27 23-49 58-41v29zm-27-48H51c-13-18-31-30-41-51 32-2 39 20 59 30 19-10 26-32 57-30-9 21-27 33-39 51" id="bX"/><path d="M34 0v-190h32V0H34zM24-211c8-23 27-35 38-54h36v5l-58 49H24" id="bY"/><path d="M141-36C126-15 110 5 73 4 37 3 15-17 15-53c-1-64 63-63 125-63 3-35-9-54-41-54-24 1-41 7-42 31l-33-3c5-37 33-52 76-52 45 0 72 20 72 64v82c-1 20 7 32 28 27v20c-31 9-61-2-59-35zM48-53c0 20 12 33 32 33 41-3 63-29 60-74-43 2-92-5-92 41" id="bZ"/><g id="Q"><use transform="matrix(0.05,0,0,0.05,0,0)" xlink:href="#bW"/><use transform="matrix(0.05,0,0,0.05,5,0)" xlink:href="#bX"/><use transform="matrix(0.05,0,0,0.05,10.95,0)" xlink:href="#bY"/><use transform="matrix(0.05,0,0,0.05,15.949999999999998,0)" xlink:href="#bS"/><use transform="matrix(0.05,0,0,0.05,25.950000000000003,0)" xlink:href="#bZ"/></g><path fill="#3d4752" d="M183-342c139 97 272 144 401 141 177-5 266-73 266-205 0-83-46-143-137-186-66-31-351-127-423-171-120-74-184-178-184-324 0-181 82-309 250-380 237-100 547-49 724 90l-107 195c-117-70-238-105-361-105-149 0-223 63-223 189 0 81 64 140 191 179 19 5 54 16 105 32 192 62 321 144 388 246 41 63 61 141 61 234 0 173-87 302-265 376C603 79 286 20 77-135" id="ca"/><g id="R"><use transform="matrix(0.0087890625,0,0,0.0087890625,0,0)" xlink:href="#ca"/><use transform="matrix(0.0087890625,0,0,0.0087890625,10.7841796875,0)" xlink:href="#bn"/><use transform="matrix(0.0087890625,0,0,0.0087890625,20.91796875,0)" xlink:href="#by"/><use transform="matrix(0.0087890625,0,0,0.0087890625,30.498046875,0)" xlink:href="#aY"/><use transform="matrix(0.0087890625,0,0,0.0087890625,39.1025390625,0)" xlink:href="#bn"/></g><path d="M135-143c-3-34-86-38-87 0 15 53 115 12 119 90S17 21 10-45l28-5c4 36 97 45 98 0-10-56-113-15-118-90-4-57 82-63 122-42 12 7 21 19 24 35" id="cb"/><path d="M100-194c63 0 86 42 84 106H49c0 40 14 67 53 68 26 1 43-12 49-29l28 8c-11 28-37 45-77 45C44 4 14-33 15-96c1-61 26-98 85-98zm52 81c6-60-76-77-97-28-3 7-6 17-6 28h103" id="cc"/><path d="M143 0L79-87 56-68V0H24v-261h32v163l83-92h37l-77 82L181 0h-38" id="cd"/><path d="M96-169c-40 0-48 33-48 73s9 75 48 75c24 0 41-14 43-38l32 2c-6 37-31 61-74 61-59 0-76-41-82-99-10-93 101-131 147-64 4 7 5 14 7 22l-32 3c-4-21-16-35-41-35" id="ce"/><g id="S"><use transform="matrix(0.05,0,0,0.05,0,0)" xlink:href="#cb"/><use transform="matrix(0.05,0,0,0.05,9,0)" xlink:href="#cc"/><use transform="matrix(0.05,0,0,0.05,19,0)" xlink:href="#cd"/><use transform="matrix(0.05,0,0,0.05,28,0)" xlink:href="#ce"/><use transform="matrix(0.05,0,0,0.05,37,0)" xlink:href="#cc"/></g><path d="M24 0v-248h195v40H76v63h132v40H76v65h150V0H24" id="cf"/><path d="M144 0l-44-69L55 0H2l70-98-66-92h53l41 62 40-62h54l-67 91 71 99h-54" id="cg"/><path d="M135-194c53 0 70 44 70 98 0 56-19 98-73 100-31 1-45-17-59-34 3 33 2 69 2 105H25l-1-265h48c2 10 0 23 3 31 11-24 29-35 60-35zM114-30c33 0 39-31 40-66 0-38-9-64-40-64-56 0-55 130 0 130" id="ch"/><path d="M185-48c-13 30-37 53-82 52C43 2 14-33 14-96s30-98 90-98c62 0 83 45 84 108H66c0 31 8 55 39 56 18 0 30-7 34-22zm-45-69c5-46-57-63-70-21-2 6-4 13-4 21h74" id="ci"/><path d="M135-150c-39-12-60 13-60 57V0H25l-1-190h47c2 13-1 29 3 40 6-28 27-53 61-41v41" id="cj"/><path d="M115-3C79 11 28 4 28-45v-112H4v-33h27l15-45h31v45h36v33H77v99c-1 23 16 31 38 25v30" id="ck"/><path d="M25 0v-190h50V0H25zm-5-208v-5l45-51h45v8l-60 48H20" id="cl"/><path d="M12 0v-35l95-120H19v-35h142v35L67-36h103V0H12" id="cm"/><path d="M133-34C117-15 103 5 69 4 32 3 11-16 11-54c-1-60 55-63 116-61 1-26-3-47-28-47-18 1-26 9-28 27l-52-2c7-38 36-58 82-57s74 22 75 68l1 82c-1 14 12 18 25 15v27c-30 8-71 5-69-32zm-48 3c29 0 43-24 42-57-32 0-66-3-65 30 0 17 8 27 23 27" id="cn"/><g id="T"><use transform="matrix(0.05,0,0,0.05,0,0)" xlink:href="#cf"/><use transform="matrix(0.05,0,0,0.05,12,0)" xlink:href="#cg"/><use transform="matrix(0.05,0,0,0.05,22,0)" xlink:href="#ch"/><use transform="matrix(0.05,0,0,0.05,32.95,0)" xlink:href="#ci"/><use transform="matrix(0.05,0,0,0.05,42.95,0)" xlink:href="#cj"/><use transform="matrix(0.05,0,0,0.05,49.95,0)" xlink:href="#ck"/><use transform="matrix(0.05,0,0,0.05,55.900000000000006,0)" xlink:href="#cl"/><use transform="matrix(0.05,0,0,0.05,60.900000000000006,0)" xlink:href="#cm"/><use transform="matrix(0.05,0,0,0.05,69.9,0)" xlink:href="#cn"/></g><path d="M141 0L90-78 38 0H4l68-98-65-92h35l48 74 47-74h35l-64 92 68 98h-35" id="co"/><path d="M115-194c55 1 70 41 70 98S169 2 115 4C84 4 66-9 55-30l1 105H24l-1-265h31l2 30c10-21 28-34 59-34zm-8 174c40 0 45-34 45-75s-6-73-45-74c-42 0-51 32-51 76 0 43 10 73 51 73" id="cp"/><path d="M114-163C36-179 61-72 57 0H25l-1-190h30c1 12-1 29 2 39 6-27 23-49 58-41v29" id="cq"/><g id="U"><use transform="matrix(0.05,0,0,0.05,0,0)" xlink:href="#cc"/><use transform="matrix(0.05,0,0,0.05,10,0)" xlink:href="#co"/><use transform="matrix(0.05,0,0,0.05,19,0)" xlink:href="#cp"/><use transform="matrix(0.05,0,0,0.05,29,0)" xlink:href="#cc"/><use transform="matrix(0.05,0,0,0.05,39,0)" xlink:href="#cq"/><use transform="matrix(0.05,0,0,0.05,44.95,0)" xlink:href="#bW"/><use transform="matrix(0.05,0,0,0.05,49.95,0)" xlink:href="#bY"/><use transform="matrix(0.05,0,0,0.05,54.95,0)" xlink:href="#bR"/><use transform="matrix(0.05,0,0,0.05,63.95,0)" xlink:href="#bZ"/></g><path fill="#3d4752" d="M311-1489L685-377l375-1112h268L802 0H554L27-1489h284" id="cr"/><g id="V"><use transform="matrix(0.0087890625,0,0,0.0087890625,0,0)" xlink:href="#cr"/><use transform="matrix(0.0087890625,0,0,0.0087890625,11.9091796875,0)" xlink:href="#bs"/><use transform="matrix(0.0087890625,0,0,0.0087890625,23.642578125,0)" xlink:href="#aY"/></g><g id="W"><use transform="matrix(0.0087890625,0,0,0.0087890625,0,0)" xlink:href="#bl"/><use transform="matrix(0.0087890625,0,0,0.0087890625,10.6083984375,0)" xlink:href="#aZ"/><use transform="matrix(0.0087890625,0,0,0.0087890625,20.759765625,0)" xlink:href="#bl"/><use transform="matrix(0.0087890625,0,0,0.0087890625,31.3681640625,0)" xlink:href="#bq"/><use transform="matrix(0.0087890625,0,0,0.0087890625,36.6328125,0)" xlink:href="#be"/></g><path fill="#3d4752" d="M806-1530l-66 177c-158-82-260-41-259 189v70h264v199H481V0H218v-895H19v-199h199c-9-207 32-364 147-449 126-93 294-66 441 13" id="cs"/><g id="X"><use transform="matrix(0.0087890625,0,0,0.0087890625,0,0)" xlink:href="#bj"/><use transform="matrix(0.0087890625,0,0,0.0087890625,11.390625,0)" xlink:href="#bC"/><use transform="matrix(0.0087890625,0,0,0.0087890625,17.0859375,0)" xlink:href="#aX"/><use transform="matrix(0.0087890625,0,0,0.0087890625,26.9912109375,0)" xlink:href="#be"/><use transform="matrix(0.0087890625,0,0,0.0087890625,35.8154296875,0)" xlink:href="#bq"/><use transform="matrix(0.0087890625,0,0,0.0087890625,41.080078125,0)" xlink:href="#cs"/><use transform="matrix(0.0087890625,0,0,0.0087890625,47.953125,0)" xlink:href="#bq"/><use transform="matrix(0.0087890625,0,0,0.0087890625,53.2177734375,0)" xlink:href="#by"/><use transform="matrix(0.0087890625,0,0,0.0087890625,63.158203125,0)" xlink:href="#aX"/><use transform="matrix(0.0087890625,0,0,0.0087890625,73.0634765625,0)" xlink:href="#aY"/><use transform="matrix(0.0087890625,0,0,0.0087890625,81.66796875,0)" xlink:href="#bn"/></g><g id="Y"><use transform="matrix(0.0087890625,0,0,0.0087890625,0,0)" xlink:href="#bI"/><use transform="matrix(0.0087890625,0,0,0.0087890625,8.6044921875,0)" xlink:href="#aX"/><use transform="matrix(0.0087890625,0,0,0.0087890625,18.509765625,0)" xlink:href="#bd"/><use transform="matrix(0.0087890625,0,0,0.0087890625,34.822265625,0)" xlink:href="#bs"/><use transform="matrix(0.0087890625,0,0,0.0087890625,46.5556640625,0)" xlink:href="#be"/><use transform="matrix(0.0087890625,0,0,0.0087890625,55.3798828125,0)" xlink:href="#bf"/><use transform="matrix(0.0087890625,0,0,0.0087890625,62.4814453125,0)" xlink:href="#bb"/><use transform="matrix(0.0087890625,0,0,0.0087890625,73.2041015625,0)" xlink:href="#bA"/><use transform="matrix(0.0087890625,0,0,0.0087890625,83.109375,0)" xlink:href="#bb"/><use transform="matrix(0.0087890625,0,0,0.0087890625,93.83203125,0)" xlink:href="#bc"/></g><path d="M24 0v-261h32V0H24" id="ct"/><path d="M24-231v-30h32v30H24zM24 0v-190h32V0H24" id="cu"/><path d="M101-234c-31-9-42 10-38 44h38v23H63V0H32v-167H5v-23h27c-7-52 17-82 69-68v24" id="cv"/><g id="Z"><use transform="matrix(0.05,0,0,0.05,0,0)" xlink:href="#cd"/><use transform="matrix(0.05,0,0,0.05,9,0)" xlink:href="#ct"/><use transform="matrix(0.05,0,0,0.05,12.949999999999998,0)" xlink:href="#bZ"/><use transform="matrix(0.05,0,0,0.05,22.95,0)" xlink:href="#cb"/><use transform="matrix(0.05,0,0,0.05,31.950000000000003,0)" xlink:href="#cu"/><use transform="matrix(0.05,0,0,0.05,35.9,0)" xlink:href="#cv"/><use transform="matrix(0.05,0,0,0.05,40.9,0)" xlink:href="#cu"/><use transform="matrix(0.05,0,0,0.05,44.85,0)" xlink:href="#cd"/><use transform="matrix(0.05,0,0,0.05,53.85,0)" xlink:href="#bZ"/><use transform="matrix(0.05,0,0,0.05,63.85,0)" xlink:href="#ce"/><use transform="matrix(0.05,0,0,0.05,72.85,0)" xlink:href="#cc"/></g><path d="M100-194c63 0 86 42 84 106H49c0 40 14 67 53 68 26 1 43-12 49-29l28 8c-11 28-37 45-77 45C44 4 14-33 15-96c1-61 26-98 85-98zm52 81c6-60-76-77-97-28-3 7-6 17-6 28h103zm-34-98H82c-13-18-31-30-41-51 32-2 39 20 59 30 19-10 26-32 57-30-9 21-27 33-39 51" id="cw"/><path d="M117-194c89-4 53 116 60 194h-32v-121c0-31-8-49-39-48C34-167 62-67 57 0H25l-1-190h30c1 10-1 24 2 32 11-22 29-35 61-36" id="cx"/><g id="aa"><use transform="matrix(0.05,0,0,0.05,0,0)" xlink:href="#bR"/><use transform="matrix(0.05,0,0,0.05,9,0)" xlink:href="#bZ"/><use transform="matrix(0.05,0,0,0.05,19,0)" xlink:href="#bQ"/><use transform="matrix(0.05,0,0,0.05,33.95,0)" xlink:href="#cw"/><use transform="matrix(0.05,0,0,0.05,43.95,0)" xlink:href="#cb"/><use transform="matrix(0.05,0,0,0.05,52.95,0)" xlink:href="#bW"/><use transform="matrix(0.05,0,0,0.05,57.95,0)" xlink:href="#cx"/><use transform="matrix(0.05,0,0,0.05,67.95,0)" xlink:href="#bV"/><use transform="matrix(0.05,0,0,0.05,77.95,0)" xlink:href="#cx"/><use transform="matrix(0.05,0,0,0.05,87.95,0)" xlink:href="#bY"/></g><g id="ab"><use transform="matrix(0.0087890625,0,0,0.0087890625,0,0)" xlink:href="#bh"/><use transform="matrix(0.0087890625,0,0,0.0087890625,8.89453125,0)" xlink:href="#aX"/><use transform="matrix(0.0087890625,0,0,0.0087890625,18.7998046875,0)" xlink:href="#by"/><use transform="matrix(0.0087890625,0,0,0.0087890625,28.740234375,0)" xlink:href="#bJ"/><use transform="matrix(0.0087890625,0,0,0.0087890625,39.462890625,0)" xlink:href="#bC"/><use transform="matrix(0.0087890625,0,0,0.0087890625,45.158203125,0)" xlink:href="#bf"/><use transform="matrix(0.0087890625,0,0,0.0087890625,52.259765625,0)" xlink:href="#aX"/></g><path d="M84 4C-5 8 30-112 23-190h32v120c0 31 7 50 39 49 72-2 45-101 50-169h31l1 190h-30c-1-10 1-25-2-33-11 22-28 36-60 37" id="cy"/><g id="ac"><use transform="matrix(0.05,0,0,0.05,0,0)" xlink:href="#cv"/><use transform="matrix(0.05,0,0,0.05,5,0)" xlink:href="#bZ"/><use transform="matrix(0.05,0,0,0.05,15,0)" xlink:href="#cd"/><use transform="matrix(0.05,0,0,0.05,24,0)" xlink:href="#cy"/><use transform="matrix(0.05,0,0,0.05,34,0)" xlink:href="#ct"/><use transform="matrix(0.05,0,0,0.05,37.95,0)" xlink:href="#bW"/><use transform="matrix(0.05,0,0,0.05,42.95,0)" xlink:href="#bZ"/></g><path fill="#3d4752" d="M105-1270v-219h958v207L362-219h733V0H60v-211l699-1059H105" id="cz"/><path fill="#3d4752" d="M478 23C-28 46 171-637 131-1081h182v683c0 176 40 284 222 279 410-11 256-575 284-961h176l6 1081H830c-6-57 6-142-11-188C756-62 660 18 478 23zm97-1673c148 0 239 91 239 239 0 154-102 228-239 245-142-11-245-91-245-245 0-148 97-239 245-239zm-137 239c-11 148 210 182 256 57 34-91-17-188-119-188-91 0-131 57-137 131" id="cA"/><g id="ad"><use transform="matrix(0.0087890625,0,0,0.0087890625,0,0)" xlink:href="#cz"/><use transform="matrix(0.0087890625,0,0,0.0087890625,10.1953125,0)" xlink:href="#bl"/><use transform="matrix(0.0087890625,0,0,0.0087890625,20.8037109375,0)" xlink:href="#cA"/><use transform="matrix(0.0087890625,0,0,0.0087890625,32.537109375,0)" xlink:href="#be"/><use transform="matrix(0.0087890625,0,0,0.0087890625,41.361328125,0)" xlink:href="#aZ"/><use transform="matrix(0.0087890625,0,0,0.0087890625,51.5126953125,0)" xlink:href="#bL"/></g><g id="ae"><use transform="matrix(0.0087890625,0,0,0.0087890625,0,0)" xlink:href="#bl"/><use transform="matrix(0.0087890625,0,0,0.0087890625,10.6083984375,0)" xlink:href="#aZ"/><use transform="matrix(0.0087890625,0,0,0.0087890625,20.759765625,0)" xlink:href="#bp"/><use transform="matrix(0.0087890625,0,0,0.0087890625,31.3681640625,0)" xlink:href="#bA"/><use transform="matrix(0.0087890625,0,0,0.0087890625,41.2734375,0)" xlink:href="#bb"/><use transform="matrix(0.0087890625,0,0,0.0087890625,51.99609375,0)" xlink:href="#bc"/></g><g id="af"><use transform="matrix(0.0087890625,0,0,0.0087890625,0,0)" xlink:href="#bl"/><use transform="matrix(0.0087890625,0,0,0.0087890625,10.6083984375,0)" xlink:href="#bB"/><use transform="matrix(0.0087890625,0,0,0.0087890625,16.55859375,0)" xlink:href="#bq"/><use transform="matrix(0.0087890625,0,0,0.0087890625,21.8232421875,0)" xlink:href="#bo"/><use transform="matrix(0.0087890625,0,0,0.0087890625,32.5458984375,0)" xlink:href="#bC"/><use transform="matrix(0.0087890625,0,0,0.0087890625,38.2412109375,0)" xlink:href="#bA"/><use transform="matrix(0.0087890625,0,0,0.0087890625,48.146484375,0)" xlink:href="#bD"/><use transform="matrix(0.0087890625,0,0,0.0087890625,57.146484375,0)" xlink:href="#by"/><use transform="matrix(0.0087890625,0,0,0.0087890625,67.0869140625,0)" xlink:href="#bz"/></g><path d="M84 4C-5 8 30-112 23-190h32v120c0 31 7 50 39 49 72-2 45-101 50-169h31l1 190h-30c-1-10 1-25-2-33-11 22-28 36-60 37zm17-294c26 0 42 16 42 42 0 27-18 40-42 43-25-2-43-16-43-43 0-26 17-42 43-42zm-24 42c-2 26 37 32 45 10 6-16-3-33-21-33-16 0-23 10-24 23" id="cB"/><path d="M115-194c53 0 69 39 70 98 0 66-23 100-70 100C84 3 66-7 56-30L54 0H23l1-261h32v101c10-23 28-34 59-34zm-8 174c40 0 45-34 45-75 0-40-5-75-45-74-42 0-51 32-51 76 0 43 10 73 51 73" id="cC"/><g id="ag"><use transform="matrix(0.05,0,0,0.05,0,0)" xlink:href="#bR"/><use transform="matrix(0.05,0,0,0.05,9,0)" xlink:href="#cp"/><use transform="matrix(0.05,0,0,0.05,19,0)" xlink:href="#cB"/><use transform="matrix(0.05,0,0,0.05,29,0)" xlink:href="#cb"/><use transform="matrix(0.05,0,0,0.05,38,0)" xlink:href="#bT"/><use transform="matrix(0.05,0,0,0.05,48,0)" xlink:href="#cC"/></g><g id="ah"><use transform="matrix(0.05,0,0,0.05,0,0)" xlink:href="#cp"/><use transform="matrix(0.05,0,0,0.05,10,0)" xlink:href="#bT"/><use transform="matrix(0.05,0,0,0.05,20,0)" xlink:href="#bS"/><use transform="matrix(0.05,0,0,0.05,30,0)" xlink:href="#bV"/><use transform="matrix(0.05,0,0,0.05,40,0)" xlink:href="#cx"/><use transform="matrix(0.05,0,0,0.05,50,0)" xlink:href="#bY"/></g><path d="M106-169C34-169 62-67 57 0H25v-261h32l-1 103c12-21 28-36 61-36 89 0 53 116 60 194h-32v-121c2-32-8-49-39-48" id="cD"/><path d="M135-143c-3-34-86-38-87 0 15 53 115 12 119 90S17 21 10-45l28-5c4 36 97 45 98 0-10-56-113-15-118-90-4-57 82-63 122-42 12 7 21 19 24 35zm-28-68H71c-13-18-31-30-41-51 32-2 39 20 59 30 19-10 26-32 57-30-9 21-27 33-39 51" id="cE"/><path d="M179-190L93 31C79 59 56 82 12 73V49c39 6 53-20 64-50L1-190h34L92-34l54-156h33" id="cF"/><g id="ai"><use transform="matrix(0.05,0,0,0.05,0,0)" xlink:href="#cp"/><use transform="matrix(0.05,0,0,0.05,10,0)" xlink:href="#bX"/><use transform="matrix(0.05,0,0,0.05,15.949999999999998,0)" xlink:href="#cu"/><use transform="matrix(0.05,0,0,0.05,19.9,0)" xlink:href="#cD"/><use transform="matrix(0.05,0,0,0.05,29.899999999999995,0)" xlink:href="#ct"/><use transform="matrix(0.05,0,0,0.05,33.85,0)" xlink:href="#bV"/><use transform="matrix(0.05,0,0,0.05,43.85,0)" xlink:href="#cE"/><use transform="matrix(0.05,0,0,0.05,52.85,0)" xlink:href="#cd"/><use transform="matrix(0.05,0,0,0.05,61.85,0)" xlink:href="#cF"/></g><g id="aj"><use transform="matrix(0.0087890625,0,0,0.0087890625,0,0)" xlink:href="#cr"/><use transform="matrix(0.0087890625,0,0,0.0087890625,11.548828125,0)" xlink:href="#bz"/><use transform="matrix(0.0087890625,0,0,0.0087890625,21.0849609375,0)" xlink:href="#bl"/><use transform="matrix(0.0087890625,0,0,0.0087890625,31.693359375,0)" xlink:href="#bq"/><use transform="matrix(0.0087890625,0,0,0.0087890625,36.9580078125,0)" xlink:href="#be"/><use transform="matrix(0.0087890625,0,0,0.0087890625,45.7822265625,0)" xlink:href="#aZ"/><use transform="matrix(0.0087890625,0,0,0.0087890625,55.93359375,0)" xlink:href="#ba"/><use transform="matrix(0.0087890625,0,0,0.0087890625,65.1181640625,0)" xlink:href="#aX"/><use transform="matrix(0.0087890625,0,0,0.0087890625,75.0234375,0)" xlink:href="#bf"/><use transform="matrix(0.0087890625,0,0,0.0087890625,82.125,0)" xlink:href="#bn"/><use transform="matrix(0.0087890625,0,0,0.0087890625,92.2587890625,0)" xlink:href="#bC"/></g><g id="ak"><use transform="matrix(0.05,0,0,0.05,0,0)" xlink:href="#bP"/><use transform="matrix(0.05,0,0,0.05,10,0)" xlink:href="#bN"/><use transform="matrix(0.05,0,0,0.05,15,0)" xlink:href="#bN"/><use transform="matrix(0.05,0,0,0.05,20,0)" xlink:href="#bP"/></g><g id="al"><use transform="matrix(0.05,0,0,0.05,0,0)" xlink:href="#bU"/><use transform="matrix(0.05,0,0,0.05,9,0)" xlink:href="#cF"/><use transform="matrix(0.05,0,0,0.05,18,0)" xlink:href="#cp"/><use transform="matrix(0.05,0,0,0.05,28,0)" xlink:href="#cu"/><use transform="matrix(0.05,0,0,0.05,31.950000000000003,0)" xlink:href="#cb"/><use transform="matrix(0.05,0,0,0.05,40.95,0)" xlink:href="#bT"/><use transform="matrix(0.05,0,0,0.05,50.95,0)" xlink:href="#bU"/><use transform="matrix(0.05,0,0,0.05,59.95,0)" xlink:href="#bZ"/><use transform="matrix(0.05,0,0,0.05,69.95,0)" xlink:href="#bW"/><use transform="matrix(0.05,0,0,0.05,74.95,0)" xlink:href="#cc"/><use transform="matrix(0.05,0,0,0.05,84.95,0)" xlink:href="#ct"/></g><path fill="#3d4752" d="M1282-743c0 396-250 743-634 743H205v-1489h417c437-2 660 295 660 746zM637-225c233 9 365-240 365-518 0-216-61-366-177-458-90-72-200-63-346-63v1039h158" id="cG"/><path fill="#3d4752" d="M1040 13c1 285-186 425-480 425-155 0-288-42-397-127l107-153c86 57 175 86 266 86 162 0 243-86 243-258v-81C700-18 607 20 498 20c-167 0-286-84-355-253-33-79-49-170-49-272 0-252 66-428 193-533 131-108 361-101 490 7v-64h263V13zM777-276v-551c-65-56-128-84-191-84-145 0-217 133-217 399 0 214 67 321 202 321 71 0 139-28 206-85" id="cH"/><g id="am"><use transform="matrix(0.0087890625,0,0,0.0087890625,0,0)" xlink:href="#cG"/><use transform="matrix(0.0087890625,0,0,0.0087890625,12.1640625,0)" xlink:href="#bq"/><use transform="matrix(0.0087890625,0,0,0.0087890625,17.4287109375,0)" xlink:href="#cH"/><use transform="matrix(0.0087890625,0,0,0.0087890625,28.0458984375,0)" xlink:href="#bq"/><use transform="matrix(0.0087890625,0,0,0.0087890625,33.310546875,0)" xlink:href="#bf"/><use transform="matrix(0.0087890625,0,0,0.0087890625,40.412109375,0)" xlink:href="#bA"/><use transform="matrix(0.0087890625,0,0,0.0087890625,50.3173828125,0)" xlink:href="#bC"/><use transform="matrix(0.0087890625,0,0,0.0087890625,56.0126953125,0)" xlink:href="#bb"/><use transform="matrix(0.0087890625,0,0,0.0087890625,66.7353515625,0)" xlink:href="#bc"/></g><g id="an"><use transform="matrix(0.0087890625,0,0,0.0087890625,0,0)" xlink:href="#aZ"/><use transform="matrix(0.0087890625,0,0,0.0087890625,10.1513671875,0)" xlink:href="#bL"/><use transform="matrix(0.0087890625,0,0,0.0087890625,20.759765625,0)" xlink:href="#bK"/><use transform="matrix(0.0087890625,0,0,0.0087890625,26.0244140625,0)" xlink:href="#bn"/><use transform="matrix(0.0087890625,0,0,0.0087890625,36.158203125,0)" xlink:href="#by"/><use transform="matrix(0.0087890625,0,0,0.0087890625,46.0986328125,0)" xlink:href="#bf"/></g><g id="ao"><use transform="matrix(0.0087890625,0,0,0.0087890625,0,0)" xlink:href="#bJ"/><use transform="matrix(0.0087890625,0,0,0.0087890625,10.72265625,0)" xlink:href="#aW"/><use transform="matrix(0.0087890625,0,0,0.0087890625,17.912109375,0)" xlink:href="#bC"/></g><g id="ap"><use transform="matrix(0.05,0,0,0.05,0,0)" xlink:href="#cp"/><use transform="matrix(0.05,0,0,0.05,10,0)" xlink:href="#bT"/><use transform="matrix(0.05,0,0,0.05,20,0)" xlink:href="#bU"/><use transform="matrix(0.05,0,0,0.05,29,0)" xlink:href="#cu"/><use transform="matrix(0.05,0,0,0.05,32.95,0)" xlink:href="#cx"/><use transform="matrix(0.05,0,0,0.05,42.95,0)" xlink:href="#cx"/><use transform="matrix(0.05,0,0,0.05,52.95,0)" xlink:href="#bV"/></g><g id="aq"><use transform="matrix(0.05,0,0,0.05,0,0)" xlink:href="#cp"/><use transform="matrix(0.05,0,0,0.05,10,0)" xlink:href="#cy"/><use transform="matrix(0.05,0,0,0.05,20,0)" xlink:href="#cC"/><use transform="matrix(0.05,0,0,0.05,30,0)" xlink:href="#ct"/><use transform="matrix(0.05,0,0,0.05,33.95,0)" xlink:href="#cu"/><use transform="matrix(0.05,0,0,0.05,37.900000000000006,0)" xlink:href="#ce"/><use transform="matrix(0.05,0,0,0.05,46.900000000000006,0)" xlink:href="#cu"/><use transform="matrix(0.05,0,0,0.05,50.85000000000001,0)" xlink:href="#bW"/><use transform="matrix(0.05,0,0,0.05,55.85,0)" xlink:href="#bZ"/></g><path fill="#3d4752" d="M899-1530H694c-74-91-182-148-233-262 171-11 222 97 336 142 108-51 154-154 324-142-46 114-154 165-222 262zm307 512c-57-159-199-256-415-256-336 0-495 228-495 563 0 341 165 575 506 575 245 0 353-137 444-296l154 80C1298-136 1110 23 791 23c-455 0-666-284-688-734-34-592 563-870 1064-631 108 51 176 148 222 262" id="cI"/><g id="ar"><use transform="matrix(0.0087890625,0,0,0.0087890625,0,0)" xlink:href="#cI"/><use transform="matrix(0.0087890625,0,0,0.0087890625,12.9462890625,0)" xlink:href="#aX"/><use transform="matrix(0.0087890625,0,0,0.0087890625,22.8515625,0)" xlink:href="#be"/><use transform="matrix(0.0087890625,0,0,0.0087890625,31.67578125,0)" xlink:href="#aZ"/><use transform="matrix(0.0087890625,0,0,0.0087890625,41.8271484375,0)" xlink:href="#ba"/><use transform="matrix(0.0087890625,0,0,0.0087890625,51.3720703125,0)" xlink:href="#br"/></g><path fill="#3d4752" d="M51 0v-137l660-808H91v-137h819v137L250-137h700V0H51zm541-1200H387c-74-102-176-171-233-290 182-11 222 114 336 171 108-57 148-182 324-171-51 119-154 188-222 290" id="cJ"/><g id="as"><use transform="matrix(0.0087890625,0,0,0.0087890625,0,0)" xlink:href="#aZ"/><use transform="matrix(0.0087890625,0,0,0.0087890625,10.1513671875,0)" xlink:href="#by"/><use transform="matrix(0.0087890625,0,0,0.0087890625,20.091796875,0)" xlink:href="#aX"/><use transform="matrix(0.0087890625,0,0,0.0087890625,29.9970703125,0)" xlink:href="#bd"/><use transform="matrix(0.0087890625,0,0,0.0087890625,46.3095703125,0)" xlink:href="#cJ"/><use transform="matrix(0.0087890625,0,0,0.0087890625,55.3095703125,0)" xlink:href="#bq"/><use transform="matrix(0.0087890625,0,0,0.0087890625,60.57421875,0)" xlink:href="#by"/></g><g id="at"><use transform="matrix(0.0087890625,0,0,0.0087890625,0,0)" xlink:href="#bp"/><use transform="matrix(0.0087890625,0,0,0.0087890625,10.6083984375,0)" xlink:href="#aX"/><use transform="matrix(0.0087890625,0,0,0.0087890625,20.513671875,0)" xlink:href="#bf"/><use transform="matrix(0.0087890625,0,0,0.0087890625,27.615234375,0)" xlink:href="#bJ"/><use transform="matrix(0.0087890625,0,0,0.0087890625,38.337890625,0)" xlink:href="#bd"/></g><g id="au"><use transform="matrix(0.0087890625,0,0,0.0087890625,0,0)" xlink:href="#bp"/><use transform="matrix(0.0087890625,0,0,0.0087890625,10.6083984375,0)" xlink:href="#aX"/><use transform="matrix(0.0087890625,0,0,0.0087890625,20.513671875,0)" xlink:href="#bf"/><use transform="matrix(0.0087890625,0,0,0.0087890625,27.615234375,0)" xlink:href="#bJ"/><use transform="matrix(0.0087890625,0,0,0.0087890625,38.337890625,0)" xlink:href="#bd"/></g><use transform="matrix(0.0087890625,0,0,0.0087890625,0,0)" xlink:href="#aX" id="av"/><g id="aw"><use transform="matrix(0.0087890625,0,0,0.0087890625,0,0)" xlink:href="#bm"/><use transform="matrix(0.0087890625,0,0,0.0087890625,9,0)" xlink:href="#aX"/><use transform="matrix(0.0087890625,0,0,0.0087890625,18.9052734375,0)" xlink:href="#be"/></g><path d="M96-169c-40 0-48 33-48 73s9 75 48 75c24 0 41-14 43-38l32 2c-6 37-31 61-74 61-59 0-76-41-82-99-10-93 101-131 147-64 4 7 5 14 7 22l-32 3c-4-21-16-35-41-35zm19-42H79c-13-18-31-30-41-51 32-2 39 20 59 30 19-10 26-32 57-30-9 21-27 33-39 51" id="cK"/><path d="M100-194c63 0 86 42 84 106H49c0 40 14 67 53 68 26 1 43-12 49-29l28 8c-11 28-37 45-77 45C44 4 14-33 15-96c1-61 26-98 85-98zm52 81c6-60-76-77-97-28-3 7-6 17-6 28h103zm-74-98c8-23 27-35 38-54h36v5l-58 49H78" id="cL"/><g id="ax"><use transform="matrix(0.05,0,0,0.05,0,0)" xlink:href="#bT"/><use transform="matrix(0.05,0,0,0.05,10,0)" xlink:href="#cK"/><use transform="matrix(0.05,0,0,0.05,19,0)" xlink:href="#cc"/><use transform="matrix(0.05,0,0,0.05,29,0)" xlink:href="#cd"/><use transform="matrix(0.05,0,0,0.05,38,0)" xlink:href="#bV"/><use transform="matrix(0.05,0,0,0.05,48,0)" xlink:href="#bU"/><use transform="matrix(0.05,0,0,0.05,57,0)" xlink:href="#bZ"/><use transform="matrix(0.05,0,0,0.05,67,0)" xlink:href="#cx"/><use transform="matrix(0.05,0,0,0.05,77,0)" xlink:href="#cL"/></g><g id="ay"><use transform="matrix(0.05,0,0,0.05,0,0)" xlink:href="#bS"/><use transform="matrix(0.05,0,0,0.05,10,0)" xlink:href="#bZ"/><use transform="matrix(0.05,0,0,0.05,20,0)" xlink:href="#bW"/><use transform="matrix(0.05,0,0,0.05,25,0)" xlink:href="#cy"/><use transform="matrix(0.05,0,0,0.05,35,0)" xlink:href="#bQ"/></g><g id="az"><use transform="matrix(0.05,0,0,0.05,0,0)" xlink:href="#cd"/><use transform="matrix(0.05,0,0,0.05,9,0)" xlink:href="#bT"/><use transform="matrix(0.05,0,0,0.05,19,0)" xlink:href="#cx"/><use transform="matrix(0.05,0,0,0.05,29,0)" xlink:href="#ce"/><use transform="matrix(0.05,0,0,0.05,38,0)" xlink:href="#cc"/></g><g id="aA"><use transform="matrix(0.05,0,0,0.05,0,0)" xlink:href="#cb"/><use transform="matrix(0.05,0,0,0.05,9,0)" xlink:href="#bQ"/><use transform="matrix(0.05,0,0,0.05,23.950000000000003,0)" xlink:href="#ct"/><use transform="matrix(0.05,0,0,0.05,27.900000000000002,0)" xlink:href="#bT"/><use transform="matrix(0.05,0,0,0.05,37.900000000000006,0)" xlink:href="#cy"/><use transform="matrix(0.05,0,0,0.05,47.900000000000006,0)" xlink:href="#bU"/><use transform="matrix(0.05,0,0,0.05,56.900000000000006,0)" xlink:href="#cF"/></g><path fill="#3d4752" d="M-152 256c240-21 361-127 362-380v-1365h273v1339c0 422-212 633-635 634V256" id="cM"/><g id="aB"><use transform="matrix(0.0087890625,0,0,0.0087890625,0,0)" xlink:href="#cM"/><use transform="matrix(0.0087890625,0,0,0.0087890625,6.046875,0)" xlink:href="#aX"/><use transform="matrix(0.0087890625,0,0,0.0087890625,15.9521484375,0)" xlink:href="#bI"/><use transform="matrix(0.0087890625,0,0,0.0087890625,24.556640625,0)" xlink:href="#bz"/><use transform="matrix(0.0087890625,0,0,0.0087890625,34.0927734375,0)" xlink:href="#by"/></g><use transform="matrix(0.0087890625,0,0,0.0087890625,0,0)" xlink:href="#bk" id="aC"/><g id="aD"><use transform="matrix(0.0087890625,0,0,0.0087890625,0,0)" xlink:href="#bJ"/><use transform="matrix(0.0087890625,0,0,0.0087890625,10.72265625,0)" xlink:href="#aW"/><use transform="matrix(0.0087890625,0,0,0.0087890625,17.912109375,0)" xlink:href="#bC"/></g><path d="M24-231v-30h32v30H24zM-9 49c24 4 33-6 33-30v-209h32V24c2 40-23 58-65 49V49" id="cN"/><g id="aE"><use transform="matrix(0.05,0,0,0.05,0,0)" xlink:href="#cN"/><use transform="matrix(0.05,0,0,0.05,3.95,0)" xlink:href="#bZ"/><use transform="matrix(0.05,0,0,0.05,13.949999999999998,0)" xlink:href="#bR"/><use transform="matrix(0.05,0,0,0.05,22.95,0)" xlink:href="#cF"/><use transform="matrix(0.05,0,0,0.05,31.950000000000003,0)" xlink:href="#cd"/></g><path d="M24-248c93 1 206-16 204 79-1 75-69 88-152 82V0H24v-248zm52 121c47 0 100 7 100-41 0-47-54-39-100-39v80" id="cO"/><path d="M110-194c64 0 96 36 96 99 0 64-35 99-97 99-61 0-95-36-95-99 0-62 34-99 96-99zm-1 164c35 0 45-28 45-65 0-40-10-65-43-65-34 0-45 26-45 65 0 36 10 65 43 65" id="cP"/><path d="M12 0v-35l95-120H19v-35h142v35L67-36h103V0H12zm99-208H70l-45-56v-5h28c13 11 24 24 38 34l36-34h28c-9 26-31 39-44 61" id="cQ"/><path d="M88-194c31-1 46 15 58 34l-1-101h50l1 261h-48c-2-10 0-23-3-31C134-8 116 4 84 4 32 4 16-41 15-95c0-56 19-97 73-99zm17 164c33 0 40-30 41-66 1-37-9-64-41-64s-38 30-39 65c0 43 13 65 39 65" id="cR"/><path d="M128 0H69L1-190h53L99-40l48-150h52" id="cS"/><path d="M147 0L96-86 75-71V0H25v-261h50v150l67-79h53l-66 74L201 0h-54" id="cT"/><g id="aF"><use transform="matrix(0.05,0,0,0.05,0,0)" xlink:href="#cO"/><use transform="matrix(0.05,0,0,0.05,12,0)" xlink:href="#cP"/><use transform="matrix(0.05,0,0,0.05,22.950000000000003,0)" xlink:href="#cQ"/><use transform="matrix(0.05,0,0,0.05,31.950000000000003,0)" xlink:href="#cn"/><use transform="matrix(0.05,0,0,0.05,41.95,0)" xlink:href="#cR"/><use transform="matrix(0.05,0,0,0.05,52.900000000000006,0)" xlink:href="#cn"/><use transform="matrix(0.05,0,0,0.05,62.900000000000006,0)" xlink:href="#cS"/><use transform="matrix(0.05,0,0,0.05,72.9,0)" xlink:href="#ci"/><use transform="matrix(0.05,0,0,0.05,82.9,0)" xlink:href="#cT"/></g><path d="M135-194c87-1 58 113 63 194h-50c-7-57 23-157-34-157-59 0-34 97-39 157H25l-1-190h47c2 12-1 28 3 38 12-26 28-41 61-42" id="cU"/><g id="aG"><use transform="matrix(0.05,0,0,0.05,0,0)" xlink:href="#cU"/><use transform="matrix(0.05,0,0,0.05,10.950000000000001,0)" xlink:href="#cn"/></g><path d="M25-224v-37h50v37H25zM75 22c2 45-34 59-81 51V38c22 5 31-5 31-27v-201h50V22" id="cV"/><path d="M123 10C108 53 80 86 19 72V37c35 8 53-11 59-39L3-190h52l48 148c12-52 28-100 44-148h51" id="cW"/><path d="M85 4C-2 5 27-109 22-190h50c7 57-23 150 33 157 60-5 35-97 40-157h50l1 190h-47c-2-12 1-28-3-38-12 25-28 42-61 42" id="cX"/><g id="aH"><use transform="matrix(0.05,0,0,0.05,0,0)" xlink:href="#cV"/><use transform="matrix(0.05,0,0,0.05,5,0)" xlink:href="#cn"/><use transform="matrix(0.05,0,0,0.05,15,0)" xlink:href="#cm"/><use transform="matrix(0.05,0,0,0.05,24,0)" xlink:href="#cW"/><use transform="matrix(0.05,0,0,0.05,34,0)" xlink:href="#cT"/><use transform="matrix(0.05,0,0,0.05,44,0)" xlink:href="#cP"/><use transform="matrix(0.05,0,0,0.05,54.95,0)" xlink:href="#cS"/><use transform="matrix(0.05,0,0,0.05,64.95,0)" xlink:href="#cP"/><use transform="matrix(0.05,0,0,0.05,75.9,0)" xlink:href="#cX"/></g><path d="M137-138c1-29-70-34-71-4 15 46 118 7 119 86 1 83-164 76-172 9l43-7c4 19 20 25 44 25 33 8 57-30 24-41C81-84 22-81 20-136c-2-80 154-74 161-7" id="cY"/><g id="aI"><use transform="matrix(0.05,0,0,0.05,0,0)" xlink:href="#cR"/><use transform="matrix(0.05,0,0,0.05,10.950000000000001,0)" xlink:href="#cP"/><use transform="matrix(0.05,0,0,0.05,21.900000000000002,0)" xlink:href="#cS"/><use transform="matrix(0.05,0,0,0.05,31.900000000000002,0)" xlink:href="#ci"/><use transform="matrix(0.05,0,0,0.05,41.900000000000006,0)" xlink:href="#cR"/><use transform="matrix(0.05,0,0,0.05,52.85,0)" xlink:href="#cU"/><use transform="matrix(0.05,0,0,0.05,63.80000000000001,0)" xlink:href="#cP"/><use transform="matrix(0.05,0,0,0.05,74.75000000000001,0)" xlink:href="#cY"/><use transform="matrix(0.05,0,0,0.05,84.75000000000001,0)" xlink:href="#ck"/></g><path fill="#3d4752" d="M102-744c-7-402 254-768 642-768 139 0 270 41 393 124l-138 175c-77-55-161-82-252-82-144 0-247 85-308 256-31 85-46 183-46 295 0 228 53 391 167 482 144 115 312 73 466-35l124 172C930 61 588 78 365-105 204-237 107-456 102-744" id="cZ"/><path fill="#3d4752" d="M1064-219V0H205v-1489h859v219H478v389h485v219H478v443h586" id="da"/><path fill="#3d4752" d="M867-682L1342 0h-315L578-645H478V0H205v-1489h419c349 0 523 143 523 428 0 191-93 317-280 379zm-389-589v414h119c185 0 277-67 277-200 0-143-84-214-252-214H478" id="db"/><g id="aJ"><use transform="matrix(0.0087890625,0,0,0.0087890625,0,0)" xlink:href="#cZ"/><use transform="matrix(0.0087890625,0,0,0.0087890625,10.107421875,0)" xlink:href="#da"/><use transform="matrix(0.0087890625,0,0,0.0087890625,20.3642578125,0)" xlink:href="#bh"/><use transform="matrix(0.0087890625,0,0,0.0087890625,30.216796875,0)" xlink:href="#db"/></g><path fill="#3d4752" d="M671-1104c506-23 302 660 341 1104H830v-688c0-176-46-279-222-273C198-950 358-381 329 0H147l-6-1081h171c6 57-6 137 11 182 63-125 165-199 347-205zm12-96H478c-74-102-176-171-233-290 182-11 222 114 336 171 108-57 148-182 324-171-51 119-154 188-222 290" id="dc"/><g id="aK"><use transform="matrix(0.0087890625,0,0,0.0087890625,0,0)" xlink:href="#bH"/><use transform="matrix(0.0087890625,0,0,0.0087890625,10.72265625,0)" xlink:href="#aW"/><use transform="matrix(0.0087890625,0,0,0.0087890625,17.5517578125,0)" xlink:href="#aZ"/><use transform="matrix(0.0087890625,0,0,0.0087890625,27.703125,0)" xlink:href="#ba"/><use transform="matrix(0.0087890625,0,0,0.0087890625,37.248046875,0)" xlink:href="#bn"/><use transform="matrix(0.0087890625,0,0,0.0087890625,47.3818359375,0)" xlink:href="#dc"/></g><g id="aL"><use transform="matrix(0.05,0,0,0.05,0,0)" xlink:href="#bP"/><use transform="matrix(0.05,0,0,0.05,10,0)" xlink:href="#bN"/><use transform="matrix(0.05,0,0,0.05,15,0)" xlink:href="#bN"/><use transform="matrix(0.05,0,0,0.05,20,0)" xlink:href="#bP"/></g><g id="aM"><use transform="matrix(0.05,0,0,0.05,0,0)" xlink:href="#bM"/><use transform="matrix(0.05,0,0,0.05,10,0)" xlink:href="#bN"/><use transform="matrix(0.05,0,0,0.05,15,0)" xlink:href="#bN"/><use transform="matrix(0.05,0,0,0.05,20,0)" xlink:href="#bO"/></g><path d="M9 0v-24l116-142H16v-24h144v24L44-24h123V0H9zm95-211H68c-13-18-31-30-41-51 32-2 39 20 59 30 19-10 26-32 57-30-9 21-27 33-39 51" id="dd"/><g id="aN"><use transform="matrix(0.05,0,0,0.05,0,0)" xlink:href="#cp"/><use transform="matrix(0.05,0,0,0.05,10,0)" xlink:href="#bT"/><use transform="matrix(0.05,0,0,0.05,20,0)" xlink:href="#dd"/><use transform="matrix(0.05,0,0,0.05,29,0)" xlink:href="#bZ"/><use transform="matrix(0.05,0,0,0.05,39,0)" xlink:href="#bS"/><use transform="matrix(0.05,0,0,0.05,49,0)" xlink:href="#bT"/><use transform="matrix(0.05,0,0,0.05,59,0)" xlink:href="#bU"/><use transform="matrix(0.05,0,0,0.05,68,0)" xlink:href="#bZ"/><use transform="matrix(0.05,0,0,0.05,78,0)" xlink:href="#cx"/><use transform="matrix(0.05,0,0,0.05,88,0)" xlink:href="#bV"/></g><path d="M85 4C-4 8 31-112 24-190h32v120c0 31 7 50 39 49 72-2 45-101 50-169h31l1 190h-30c-1-10 1-25-2-33-11 22-28 36-60 37zM73-211c8-23 27-35 38-54h36v5l-58 49H73" id="de"/><path d="M118-194c89-4 53 116 60 194h-32v-121c0-31-8-49-39-48C35-167 63-67 58 0H26l-1-190h30c1 10-1 24 2 32 11-22 29-35 61-36zm2-17H84c-13-18-31-30-41-51 32-2 39 20 59 30 19-10 26-32 57-30-9 21-27 33-39 51" id="df"/><g id="aO"><use transform="matrix(0.05,0,0,0.05,0,0)" xlink:href="#de"/><use transform="matrix(0.05,0,0,0.05,10,0)" xlink:href="#cq"/><use transform="matrix(0.05,0,0,0.05,15.949999999999998,0)" xlink:href="#bT"/><use transform="matrix(0.05,0,0,0.05,25.950000000000003,0)" xlink:href="#bU"/><use transform="matrix(0.05,0,0,0.05,34.95,0)" xlink:href="#cc"/><use transform="matrix(0.05,0,0,0.05,44.95,0)" xlink:href="#df"/></g><path d="M179-190L93 31C79 59 56 82 12 73V49c39 6 53-20 64-50L1-190h34L92-34l54-156h33zM63-211c8-23 27-35 38-54h36v5l-58 49H63" id="dg"/><g id="aP"><use transform="matrix(0.05,0,0,0.05,0,0)" xlink:href="#cp"/><use transform="matrix(0.05,0,0,0.05,10,0)" xlink:href="#bT"/><use transform="matrix(0.05,0,0,0.05,20,0)" xlink:href="#dd"/><use transform="matrix(0.05,0,0,0.05,29,0)" xlink:href="#bZ"/><use transform="matrix(0.05,0,0,0.05,39,0)" xlink:href="#bS"/><use transform="matrix(0.05,0,0,0.05,49,0)" xlink:href="#bT"/><use transform="matrix(0.05,0,0,0.05,59,0)" xlink:href="#bU"/><use transform="matrix(0.05,0,0,0.05,68,0)" xlink:href="#bZ"/><use transform="matrix(0.05,0,0,0.05,78,0)" xlink:href="#cx"/><use transform="matrix(0.05,0,0,0.05,88,0)" xlink:href="#dg"/></g><g id="aQ"><use transform="matrix(0.05,0,0,0.05,0,0)" xlink:href="#cN"/><use transform="matrix(0.05,0,0,0.05,3.95,0)" xlink:href="#bZ"/><use transform="matrix(0.05,0,0,0.05,13.949999999999998,0)" xlink:href="#bR"/><use transform="matrix(0.05,0,0,0.05,22.95,0)" xlink:href="#cF"/><use transform="matrix(0.05,0,0,0.05,31.950000000000003,0)" xlink:href="#cd"/></g><g id="aR"><use transform="matrix(0.05,0,0,0.05,0,0)" xlink:href="#cp"/><use transform="matrix(0.05,0,0,0.05,10,0)" xlink:href="#bT"/><use transform="matrix(0.05,0,0,0.05,20,0)" xlink:href="#dd"/><use transform="matrix(0.05,0,0,0.05,29,0)" xlink:href="#bZ"/><use transform="matrix(0.05,0,0,0.05,39,0)" xlink:href="#bS"/><use transform="matrix(0.05,0,0,0.05,49,0)" xlink:href="#bZ"/><use transform="matrix(0.05,0,0,0.05,59,0)" xlink:href="#bU"/><use transform="matrix(0.05,0,0,0.05,68,0)" xlink:href="#cc"/><use transform="matrix(0.05,0,0,0.05,78,0)" xlink:href="#cd"/></g><g id="aS"><use transform="matrix(0.05,0,0,0.05,0,0)" xlink:href="#cx"/><use transform="matrix(0.05,0,0,0.05,10,0)" xlink:href="#bZ"/></g><g id="aT"><use transform="matrix(0.05,0,0,0.05,0,0)" xlink:href="#cN"/><use transform="matrix(0.05,0,0,0.05,3.95,0)" xlink:href="#bZ"/><use transform="matrix(0.05,0,0,0.05,13.949999999999998,0)" xlink:href="#bR"/><use transform="matrix(0.05,0,0,0.05,22.95,0)" xlink:href="#cF"/><use transform="matrix(0.05,0,0,0.05,31.950000000000003,0)" xlink:href="#cd"/><use transform="matrix(0.05,0,0,0.05,40.95,0)" xlink:href="#bT"/><use transform="matrix(0.05,0,0,0.05,50.95,0)" xlink:href="#bU"/><use transform="matrix(0.05,0,0,0.05,59.95,0)" xlink:href="#bT"/><use transform="matrix(0.05,0,0,0.05,69.95,0)" xlink:href="#cy"/></g><g id="aU"><use transform="matrix(0.05,0,0,0.05,0,0)" xlink:href="#bS"/><use transform="matrix(0.05,0,0,0.05,10,0)" xlink:href="#bT"/><use transform="matrix(0.05,0,0,0.05,20,0)" xlink:href="#bU"/><use transform="matrix(0.05,0,0,0.05,29,0)" xlink:href="#cc"/><use transform="matrix(0.05,0,0,0.05,39,0)" xlink:href="#bS"/><use transform="matrix(0.05,0,0,0.05,49,0)" xlink:href="#cx"/><use transform="matrix(0.05,0,0,0.05,59,0)" xlink:href="#bT"/><use transform="matrix(0.05,0,0,0.05,69,0)" xlink:href="#cb"/><use transform="matrix(0.05,0,0,0.05,78,0)" xlink:href="#bW"/></g></defs></g></svg>